<?xml version="1.0" encoding="UTF-8"?>
<svg id="Layer_2" data-name="Layer 2" xmlns="http://www.w3.org/2000/svg" viewBox="0 0 837.93 459.57">
  <defs>
    <style>
      .cls-1 {
        fill: #49148A;
      }
    </style>
  </defs>
  <g id="Layer_1-2" data-name="Layer 1">
    <g>
      <path class="cls-1" d="m365.98,30.12h-.01s0,0,0,0h.02Zm-182.7,119.07c5.81-5.63,2.75-14.85-5.39-15.57-.71-.04-1.43-.05-2.15-.07-.31-.01-.62-.03-.93-.03-10.4-.26-20.85.86-31.24,1.51,1.22-2.15,10.57-18.59,10.57-18.59,6.82-12.81,13.71-20.11,21.56-32.26,3.85-6.86-.45-16.28-8.86-15.63-7.81.25-12.18,7.76-15.59,13.81-3.64,6.24-7.31,12.45-11.01,18.64l-8.59,14.87-5.96,9.03c-2.1,3.17-4.16,6.37-6.4,9.45-.82.9-2.39,1.18-3.6.73-1.26-.39-2.28-1.55-2.11-2.9-.36-6.12-.43-12.34-1.76-18.4-2.52-12.11-8.27-23.52-16.46-32.79-4.06-4.58-9.04-8.79-14.06-11.96-1.85-1.53-4.37-1.98-5.92-3.76,0-.05.02-.1.02-.15l.08-.31c.01-.1.08-.21.12-.28.04-.06.07-.09.14-.14l.08-.07s-.03.07-.05.07c0,0,.15-.09.2-.12.08.02.27.03.4-.03,0,0-.04.01-.04.01,70.61-16.64,142.6-28.3,215.11-31.81,26.34-1.29,55.1-.8,81.67-.61,9.59.34,19.97-4.71,19.88-15.53-.33-10.66-11.61-14.8-20.58-15.44-17.86-1.69-36.64-.39-54.54.07-81.73,2.6-162.5,19.4-241.92,37.87-9.59,2.57-57.85,13.51-66.19,16.63-8.91,3.37-13.95,13.73-5.2,20.3,5.27,3.07,11.73,2.45,17.32,2.08,17.66-1.4,36.71,1.9,50.23,14,13.51,11.77,20.05,30.27,18.88,47.97-4.28.92-25.11,5.4-25.11,5.4-6.31,1.65-13.9,2.92-18.32,8.42-7.81,10.12.99,26.47,13.89,24.51,4.62-.48,8.77-2.42,12.84-3.82l10.83-3.32c-7.28,23.34-20.03,44.41-34.01,64.35l-10.4,15.69c-4.93,7.71-11.19,16.71-8.86,26.48,1.76,6.39,7.89,11.04,14.43,11.41,9.77.47,18.77-5.74,23.88-13.71,3.52-5.3,5.76-11.25,8.02-17.08,4.55-11.68,9-23.39,14.33-34.72,10.57-22.37,25.98-43.84,37.4-64.95,15.8-2.8,31.65-5.35,47.63-6.81,2.09-.02,4.23-.95,5.75-2.41"/>
      <path class="cls-1" d="m641.8,349.44c-24,35.62-58.68,65.6-98.72,80.48-14.74,5.25-30.7,8.71-45.12,4.85-9.05-2.38-17.56-8.91-18.49-18.68-1.14-15.21,12.12-28.57,23.82-37.97,7.11-5.91,15.29-11.56,23.04-16.49,38.07-23.69,80.5-36.73,122.26-49.15,4.6-1.33,9.77-2.79,15.22-4.31-5.99,14.32-13.39,28.19-22,41.27m-412.48-123.55c-3.69-17.96.15-38.68,5.83-55.8,3.92-11.4,9.29-22.36,15.6-32.75,6.31-10.35,13.81-20.08,23.19-27.49,8.88-7.54,17.81-8.04,18.97,4.69,1.26,12.96-3.86,25.92-8.54,38.53-8.98,22.43-22.88,43.06-40.12,60.25-4.06,4-9.23,8.56-14.93,12.58m552.99,23c-7.27-3.54-16.33-1.26-23.97.75-19.28,4.98-38.52,10.26-57.7,15.91,3.34-14.52,5.31-29.22,5.43-43.81.33-10.32-1.01-20.97-6.1-29.7-11.6-20.98-37.27-16.18-53.99.57-3.87,3.94-7.28,8.28-10.43,12.74-9.25,13.24-16.59,28.07-28.71,39.12-8.61,8.4-25.76,15.72-32.47,4.07-5.14-11.96,10.65-23.4,16.41-33.62,1.97-3.5,3.62-6.8,3.82-10.82.17-3.43-.7-6.87-2.78-9.52-5.41-6.93-16.06-5.93-23.61-2.35-8.97,4.26-15.05,13.49-19.04,22.21-1.67,3.64-2.93,7.43-4.41,11.15-1.48,3.72-3.27,7.08-5.51,10.42-10.33,13.69-30.94,26.41-47.91,18.1-4.67-2.29-8.66-5.81-11.79-9.9,19.52-14.45,77.17-81.1,65.63-105.44-2.31-4.78-7.4-7.76-12.82-7.54-17.28.98-25.01,20.01-31.76,33.48-4.53,9.71-8.57,19.62-13.67,29.04-5.03,9.18-10.63,18.1-17.09,26.39-3.78-17.02-3.99-34.75-5.12-52.23-.31-5.91-.51-12.21-3.98-17.15-4.72-7.31-14.92-7.23-21.4-1.34-12.24,10.36-5.31,32.65-3.26,45.87,3.07,15.29,7.46,30.4,14.78,44.07-8.05,6.26-16.89,11.92-26.66,14.69-12.54,3.55-29.14,1.59-30.79-13.59-1.03-9.46,3.94-18.4,8.15-26.77,3.73-7.42,9.55-15.73,8.27-24.28-1.27-8.43-10.81-12.58-18.07-7.12-4.35,3.15-7.09,7.88-9.52,12.48-3.57,6.94-6.07,14.33-8.98,21.52-4.74,11.83-10.2,24.14-20.56,32.22-8.46,6.92-21.1,8.44-22.31-4.74-1.09-12.65,5.24-24.99,12.68-35.29,3.06-4.18,6.41-8.23,9.15-12.71,4.19-6.44,7.1-15.97.96-21.67-4.03-3.74-10.27-2.03-14.87.32-13.14,6.99-17.67,22.92-23.51,35.5-7.36,15.87-17.1,32.71-32.68,41.77-15.75,9.16-34.6,8.81-45.17-7.57,29.99-18.54,57.02-50.38,71.55-76.51,6.79-12.16,12.28-25.07,15.91-38.41,3.05-10.41,4.33-21.42,1.95-31.84-3.91-19.47-19.23-33.45-40.14-26.55-23.97,8.06-40.02,30.08-52.53,50.94-18.83,31.88-28.06,69.29-24.3,105.12.32,2.83.8,5.66,1.4,8.46-4.21,1.19-8.38,1.6-12.33.86-9.15-1.7-12.01-10.63-17.01-17.37-1.91-2.48-4.43-4.71-7.58-5.99-14.39-5.41-27.93,8.72-23.37,23.03,5.96,18.5,27.7,25.25,45.96,23.38,7-.71,14.06-2.56,21.07-5.3,3.26,5.99,7.51,11.36,12.95,15.6,20.34,15.73,51.53,11.14,71.36-6.08,1.61-1.43,3.31-2.81,4.63-4.59.74,3,1.87,5.91,3.51,8.5,5.45,9.1,17.17,12.15,27.48,11.25,13.92-.93,26.4-9.16,36.59-18.58,14.32,22.54,44.48,20.61,67.43,10.07,7.64-3.3,13.62-7.72,20.62-12.27,21.95,23.63,59.24,24.05,86.07,4.4l1.09-.78c.64,1.2,1.32,2.37,2.09,3.5,12.22,18.11,38.48,15.65,57.36,4.4,14.28-8.32,25.77-20.99,35.31-34.29,6.21-8.02,10.84-19.48,20.86-23.04,8.73-3.16,11.92,4.44,13.12,11.44,2.73,12.18,1.92,25.19-.18,37.97-.73,4-1.59,7.99-2.56,11.96-68.05,21.47-168.38,55.97-205.38,110-12.13,17.85-18.75,42.8-4.78,58.72,12.87,15.61,35.54,19.08,56.13,16.79,10.45-1.4,20.84-3.96,30.96-7.58,15.22-5.38,29.56-13.54,42.95-22.92,43.57-31.88,75.67-78.11,94.53-127.37,7.22-1.97,14.17-3.87,20.2-5.53,7.68-1.99,23.04-5.57,30.78-7.18l15.43-3.38c4.56-1.06,11.25-2.22,15.67-3.81,5.25-1.84,10.52-4.95,14.17-9.79,5.89-7.34,4.57-18.95-3.61-22.48"/>
      <path class="cls-1" d="m837,246.44c-1.47-5.72-6.26-10.39-12.49-12.2-6.03-1.75-12.13-.45-16.28,3.45-3.51,2.79-5.74,6.96-6.26,11.74-.57,5.15.9,10.34,4.03,14.22,4.21,5.04,9.21,6.87,13.8,6.87,3.2,0,6.2-.89,8.61-2.19,6.53-3.55,11.72-11.69,8.6-21.88"/>
    </g>
  </g>
</svg>