<?xml version="1.0" encoding="UTF-8"?>
<svg id="Layer_2" data-name="Layer 2" xmlns="http://www.w3.org/2000/svg" viewBox="0 0 604.36 489.62">
  <defs>
    <style>
      .cls-1 {
        fill: none;
        stroke: #a8a9a3;
        stroke-linecap: round;
        stroke-linejoin: round;
        stroke-width: 10px;
      }
    </style>
  </defs>
  <g id="Layer_1-2" data-name="Layer 1">
    <path class="cls-1" d="m5,484.62c39.91-24.12,78.95-49.78,117.36-76.22,40.24-27.71,80.33-55.82,117.97-87.01,42.94-35.58,102.18-73.63,117.21-131.19,4.54-17.41,1.82-37.89-11.41-50.09-15.49-14.28-41.34-12.61-58.3-.1-14.61,10.77-23.22,29.31-17.53,47.15,12.13,38.03,68.52,47.71,102.53,52.32,51.05,6.92,106.01,9.77,156.17-3.69,26.35-7.07,50.14-21.66,58.68-48.83,15.77-50.18-11.71-103.94.47-154.98,2.27-9.53,5.92-18.7,11.21-26.96"/>
  </g>
</svg>