<?xml version="1.0" encoding="UTF-8"?>
<svg id="Layer_2" data-name="Layer 2" xmlns="http://www.w3.org/2000/svg" viewBox="0 0 518.63 70.95">
  <defs>
    <style>
      .cls-1 {
        fill: #fff;
      }
    </style>
  </defs>
  <g id="Layer_1-2" data-name="Layer 1">
    <g>
      <path class="cls-1" d="m317.13,18.86c.48.32.68.55,1.25.54.5-.01.89-.21,1.51-.51.44-.21,1.27-.45,1.77-.74.45-.27.86-.63,1.32-.93.46-.3,1.03-.37,1.45-.67.47-.34.77-.86,1.14-1.16.6-.48,1.31-1.38,1.31-1.87,0-.38-.13-.67-.43-1.06-.3-.39-.39-.6-.82-.94-.44-.34-.68-.73-1.08-.95-.22-.12-.46-.18-.66-.18-.27,0-.38.1-.62.28-.34.26-.74.86-1.58,1.51-.41.32-1.43.88-1.86,1.28-.41.38-.72.82-1.14,1.18-.45.4-.97.7-1.37,1.02-.63.5-.84.78-1.22.91-.23.08-.34.26-.33.5,0,.24.13.55.36.87.29.4.51.63.98.94Z"/>
      <path class="cls-1" d="m87.14,16.54c.68,0,1.39-.38,1.89-.78.83-.67,1.56-1.66,2.17-2.53.68-.99,1.06-2.15,1.06-3.07,0-1.2-.81-2.87-1.84-2.87-.82,0-2.04.42-2.77.88-1.54.97-2.97,2.95-2.97,4.86,0,1.17.94,3.52,2.46,3.52Z"/>
      <path class="cls-1" d="m122.06,29.77c-.52,0-.9.73-1.27,1.15-.32.35-.77.84-1.1,1.18-.72.75-1.48,1.47-2.23,2.19-.76.73-1.46,1.53-2.24,2.25-.84.78-1.77,1.47-2.67,2.17-1.61,1.25-3.39,2.34-5.3,3.21-.93.42-1.93,1.18-3.6,1.18-.79,0-1.28-.16-1.65-.83-.15-.26-.37-.94-.37-1.29,0-.73.21-1.53.42-2.11.25-.69.94-2.03,1.62-2.03.41,0,.88.47,1.29.67.43.21.91.38,1.39.38,1.03,0,2.01-.5,2.92-.93,1.89-.9,3.87-1.85,5.16-3.56,1.19-1.58,2.38-3.87,2.38-5.86,0-1.03-.77-2.87-.91-3.07-.67-.98-1.59-1.56-2.75-1.79-.44-.09-.9-.21-1.35-.21-.72,0-1.44.21-2.07.62-.4.25-.8.49-1.28.58-.46.08-.97.02-1.41.25-.36.2-.68.61-1.02.86-.41.3-.52.68-.85,1.05-.38.43-.94.69-1.31,1.04-.42.39-.79.78-1.14,1.23-.72.93-1.58,1.75-2.2,2.75-.28.44-.54.89-.81,1.33-.09.1-.18.21-.27.31-1.08,1.18-1.98,2.53-3.13,3.64-1.06,1.02-2.24,1.92-3.3,2.95-1.11,1.08-2.33,2.05-3.73,2.73-.28.14-.7.33-1.07.33-.43,0-.69-.31-.68-.7.01-.45.31-1,.47-1.32.37-.76.84-1.47,1.28-2.19.43-.69.54-1.41.91-2.11.64-1.22,1.53-2.23,2.32-3.34.96-1.34,1.61-2.84,2.5-4.22.83-1.29,1.82-2.47,2.59-3.8.66-1.13,1.18-2.83,2.49-3.29.35-.12.54-.22.54-.34,0-.13-.15-.17-.15-.3,0-.11.2-.15.35-.15.36,0,.45.12.77.12s.62-.11.91-.19c.16-.05.45-.13.8-.13.42,0,.99-.11,1.33-.11.37,0,.65.09.98.09s.69-.05,1.05-.1c.83-.1,1.61-.16,2.4-.45.63-.23,1.31-.29,1.93-.54.39-.16.54-.52.54-.82,0-.27-.11-.48-.27-.78-.24-.47-.31-1.17-.7-1.53-.55-.5-1.95-.62-2.51-.62s-1.16,0-1.55.06c-.54.1-1,.2-1.54.2-.39,0-.91-.14-.91-.43,0-.25.3-.56.48-.84.43-.66.84-1.33,1.32-1.94.56-.71,1.11-1.35,1.11-2.41,0-1.16-.79-2.04-1.84-2.6-.42-.23-1.01-.61-1.54-.61-.72,0-.88.8-1.24,1.31-.24.33-.48.58-.62.98-.09.26-.15.53-.3.77-.33.55-.8,1.08-1.19,1.61-.82,1.1-1.78,2.07-2.58,3.19-.37.52-.65,1.08-1.31,1.27-.62.18-2,.12-2.64.2-1.57.2-2.46.41-4.03.65-.85.13-1.73.21-2.57.38-.31.06-.41.21-.41.4,0,.24.16.54.27.84.21.6.38,1.42.97,1.77.6.35,1.43.21,2.01.6.35.23.52.34.97.4.24.03.34.08.6.08.35,0,.52-.09.77-.09.22,0,.47.03.47.43,0,.62-.75,1.45-1.11,1.97-.39.58-.77,1.16-1.19,1.72-.35.46-.47,1-.8,1.44-.15.2-.38.32-.52.53-.13.19-.16.44-.28.64-.21.37-2.28,2.49-2.28,3.06,0,.03.01.04.02.06-.05.07-.1.13-.16.2-.58.73-1.17,1.44-1.75,2.17-1.14,1.45-2.31,2.89-3.54,4.26-1.19,1.32-2.3,2.76-3.68,3.88-.45.37-1.98,1.52-2.75,1.52-.28,0-.46-.15-.45-.56,0-.47.54-2.38.95-3.08.42-.7.89-1.39,1.31-2.1.39-.66.99-1.16,1.38-1.81.2-.34.28-.73.47-1.07.19-.33.47-.56.7-.86.55-.69.84-1.46,1.23-2.23.39-.76.93-1.44,1.37-2.17.55-.9,1.22-2.12,1.22-3.24,0-.56-.17-1.1-.6-1.56-.3-.32-.68-.55-.98-.87-.23-.24-.53-.57-.94-.57-.7,0-1.21.87-1.63,1.28-.29.28-.58.5-.74.88-.08.19-.08.39-.21.57-.41.58-1.15.97-1.61,1.54-.49.6-.89,1.39-1.32,2.04-.15.23-.28.46-.42.69-.92,1.23-1.8,2.35-2.9,3.47-1.08,1.1-2.66,2.85-4.26,2.85-.46,0-.66-.18-.66-.5,0-.19.07-.42.19-.69.37-.8.82-1.56,1.2-2.35.75-1.55,1.14-3.56,1.14-5.16,0-.51-.05-1-.18-1.53-.16-.67-.14-1.37-.32-2.02-.32-1.13-1.45-1.82-2.57-1.82-1.69,0-3.14.83-4.48,1.75-.31.22-2.58,2.12-3.02,2.12-.13,0-.16-.08-.16-.22,0-.57,2-2.95,2.25-3.29.88-1.23,1.47-2.19,2.67-3.13,2.2-1.71,4.42-3.71,6.1-5.95.57-.76,1.14-1.57,1.65-2.38.28-.45.41-1,.72-1.44.36-.51.98-.75,1.34-1.27.35-.52.64-1.15.9-1.72.45-.96.96-2.04.96-3.12,0-.33-.05-.67-.16-1-.35-1.01-1.1-2.01-2.1-2.01-.26,0-.54.07-.84.23-.64.34-1.14.9-1.79,1.26-.57.31-1.02.57-1.46,1.07-.4.46-.64,1.09-1.05,1.54-.15.16-.4.19-.54.38-.15.2-.17.54-.33.75-.5.63-1.05.85-1.24,1.16-.17.27-.08.46-.17.71-.07.19-.17.35-.42.66-.83,1.02-1.8,1.92-2.65,2.94-.87,1.06-1.55,2.17-2.32,3.27-.71,1.01-1.4,1.93-2.01,3-.37.64-.81,1.2-1.19,1.82-.26.43-.33.93-.58,1.36-.31.52-.7,1.18-1.09,1.65-.3.36-.71.57-1.03.91-.47.5-.37.97-.67,1.52-.31.57-.71,1.06-.99,1.66-.37.8-.76,1.61-1.14,2.37-.49.98-1.24,1.96-1.65,2.89-.06.14-.3.7-.3.86,0,.13.04.19.08.26-1.41,1.65-2.82,3.19-4.29,4.72-1.07,1.11-2.24,2.21-3.47,3.15-.45.34-1.25.89-1.78.89-.31,0-.53-.32-.53-.71,0-1.43.82-2.63,1.41-3.88.62-1.31,1.82-2.31,2.53-3.58.35-.63.62-1.3,1.03-1.9.38-.56.82-1.08,1.23-1.62.88-1.19,1.74-2.63,1.74-4.16,0-.56-.16-1.09-.56-1.52-.26-.28-.62-.55-1-.55-.48,0-.76.2-1.02.2-.34,0-.69-.62-1.08-.62-.5,0-.98.62-1.24.97-.18.25-.42.55-.56.82-.12.25-.11.46-.18.71-.14.49-.82.88-1.14,1.29-.95,1.2-1.82,2.44-2.85,3.58-.41.45-.6.95-.92,1.46-.29.47-.68.9-1.04,1.32-.42.49-.99.92-1.34,1.48-.15.24-.04.38-.14.58-.09.19-.44.16-.55.33-.14.22-.07.37-.25.65-.06.1-.14.14-.19.14-.15,0-.14-.1-.35-.1-.29,0-.85.82-1.07,1.08-.2.23-.47.38-.67.59-.17.19-.13.42-.28.61-.17.22-.47.13-.69.25-.24.13-.36.4-.55.59-.55.56-1.25.95-1.84,1.46-.26.22-.82.77-1.27.77-.27,0-.42-.17-.4-.5.04-.92,1.27-2.81,1.49-3.21.75-1.36,1.7-2.6,2.61-3.85.91-1.25,2.01-2.62,2.81-3.95.38-.64.71-1.12,1.02-1.8.26-.57.68-1.23.68-1.87,0-.72-.55-1.25-1.05-1.7-.32-.28-.81-1.04-1.27-1.04-.49,0-.49.55-.95.55-.1,0-.17-.02-.29-.02-.29,0-.5.23-.93.42-.25.12-.5.2-.72.38-.5.41-.67.99-.95,1.54-.26.52-.79.86-1.13,1.34-.78,1.12-1.32,2.32-2.1,3.42-.06.06-.11.13-.18.19-.72.63-1.19,1.3-1.88,1.97-.74.71-1.35,1.63-2.08,2.36-1.45,1.44-2.6,2.72-4.26,3.79-.13.08-.47.3-.67.3-.1,0-.21-.14-.21-.31,0-.49.21-.83.26-.97.39-.97.66-1.65.99-2.64.58-1.73,1.3-3.47,1.65-5.27.33-1.69.59-3.4.83-5.09.03-.24.05-.49.05-.74,0-1.15-.39-2.32-1.52-2.65-.36-.11-.74-.07-1.06-.27-.29-.18-.64-.5-1.06-.5-.63,0-1.19.64-1.66,1.02-.39.32-1.04.67-1.41,1.03-.95.98-1.94,2.06-2.84,3.07-1.21,1.38-2.39,2.78-3.49,4.24-1.13,1.49-2.24,3.06-3.51,4.45-.62.68-1.27,1.32-1.92,1.96-.56.55-1.34,1.27-1.34,1.99,0,.56.71.88,1.12,1.24.22.19.29.48.32.8.04.45,0,.97.13,1.41.44,1.44.9,2.31,1.88,3.43.54.61,1.43,1.52,2.3,1.76.57.16,1.11.2,1.71.2h0c.87,0,1.89-.17,3.06-.59.88-.31,1.94-.83,2.61-1.18,1.33-.72,2.64-1.27,3.9-2.17,1.14-.81,2.22-1.77,3.25-2.75-.09.47-.16.94-.16,1.38,0,.81.51,2.79,1.34,3.71.77.86,1.69,1.2,2.63,1.2,1.68,0,3.32-1.07,4.58-2.21,1.09-.99,2.12-2.1,3.01-3.28.51-.68.87-1.41,1.33-1.41s.41.77.45,1.48c.07,1.29.48,2.79,1.71,3.41.6.3,1.16.77,1.77,1.02.29.12.61.17.93.17s.67-.05.98-.11c1.31-.26,2.44-.9,3.46-1.71,1.27-.99,2.38-2.24,3.48-3.34.39-.39.78-.8,1.18-1.21,0,1.31.32,2.78.73,3.92.43,1.18,1.47,2.34,2.66,2.8.73.28,1.46.4,2.19.4,2.22,0,4.37-1.13,6.16-2.43,1.24-.9,2.34-1.97,3.37-3.1.35-.38.76-1.06,1.2-1.34.2-.12.4-.16.6-.16.35,0,1.05.15,1.45.15,1.34,0,2.65-.39,3.87-1,0,0,0,0,0,.01-.11.69-.35,1.66-.35,2.57,0,.96.27,2.07.81,3.1.4.77.72,1.46,1.53,1.85.69.33,1.43.48,2.17.48,1.17,0,2.35-.38,3.37-.99,1.8-1.08,3.19-2.66,4.63-4.16.23-.24.48-.47.72-.69-.01.1-.02.19-.02.28,0,.51.08.93.12,1.47.06.81.39,1.19.88,1.83.93,1.23,2.31,1.78,3.41,1.78h0c1.58,0,2.92-.55,4.18-1.35,2.19-1.39,4.14-3.19,5.97-5.06-.03.3-.12.59-.12.88,0,.36.18.49.41.77.17.21.17.41.22.67.07.39.04.88.25,1.22.23.37.7.33.91.71.2.36.19.7.49,1.05.59.69,1.43,1.06,2.29,1.28.77.2,1.55.3,2.33.3,1.32,0,2.63-.28,3.86-.8,1.95-.84,3.83-1.92,5.48-3.27,1.66-1.35,3.34-2.82,4.86-4.32,1.43-1.41,2.75-3.09,3.93-4.7.61-.83.71-1.76.79-2.78.02-.21.24-.89.24-1.4,0-.54-.1-.9-.48-.9Zm-15.61,2.54c.39-.72.84-1.3,1.5-1.79.74-.55,1.21-1.27,1.84-1.92.47-.49,1.43-1.34,2.11-1.34.28,0,.37.15.37.37,0,.46-.43,1.21-.56,1.48-.39.81-.85,1.61-1.34,2.37-.44.67-1.05,1.25-1.81,1.75-.88.57-1.92,1.01-2.45,1.01h0c-.26,0-.34-.15-.34-.36,0-.47.56-1.33.69-1.57Zm-93.68-1.34c-.35.51-.31.82-.47,1.38-.15.52-.21.92-.39,1.45-.21.61-.45,1.03-.45,1.43,0,.34.28.37.28.66,0,.24-.15.36-.15.58,0,.25.25.32.25.46,0,.45-.89.76-.89,1.21,0,.18.09.35.07.52-.03.27-.33.54-.57.59-.29.07-.43.2-.5.36-.22.45-.63,1.23-1.02,1.73-.41.53-.95,1.09-1.45,1.46-.21.15-.47.22-.73.22-.42,0-1.13-.35-1.33-.69-.26-.45-.7-2-.7-3,0-1.21,1.6-2.29,2.44-3.26.95-1.1,1.74-2.32,2.71-3.4.42-.47.67-.92,1.14-1.35.6-.55,1.27-1.17,1.8-1.17.17,0,.22.13.19.3-.02.16-.11.36-.22.52Zm49.69-.98c-.42.89-.86,1.77-1.14,2.71-.25.88-.29,1.73-.84,2.49-.48.67-1.2,1-1.65,1.76-.44.74-.76,1.46-1.35,2.11-.51.57-1.05,1.25-1.61,1.76-.23.21-.43.25-.69.38-.34.17-.66.46-.96.66-.33.22-1.27.48-2.04.48-.4,0-.79-.22-.79-.62,0-1.09.52-1.74.92-2.64.41-.93.81-1.83,1.37-2.68,1.18-1.81,2.63-3.43,4.11-4.99,1.32-1.39,3.01-2.53,4.28-3.95.34-.38.66-.69.91-.69.16,0,.34.15.34.72,0,.84-.5,1.76-.85,2.51Z"/>
      <path class="cls-1" d="m505.14,29.18c-.22,0-.41.25-.63.59-.28.43-.6.83-.73.99-1.08,1.41-2.47,2.62-3.8,3.79-.67.59-1.36,1.2-2.19,1.58-.24.11-.98.41-1.48.41-.27,0-.47-.09-.47-.35,0-.35.72-1.11,1.04-2.05.27-.8.44-1.71.59-2.54.17-.93.63-1.72.76-2.65.08-.51.12-1.01.12-1.52,0-.35-.02-.69-.07-1.04-.12-.89-.67-1.73-1.26-2.48-.52-.66-1.05-1.26-1.79-1.56-.99-.4-2.12-.41-3.16-.41-.87,0-1.64.29-2.42.71-.39.21-.99.44-1.5.75-.41.25-.76.54-.89.91-.12.34-.1.57-.33.68-.18.08-.48.06-.68.18-.13.08-.2.21-.32.29-.28.2-.61.24-.89.49-.27.24-.46.53-.75.74-.2.15-.73.31-.73.63,0,.23.24.23.24.39,0,.19-.36.17-.56.41-.1.12-.04.26-.11.39-.16.28-.45.5-.64.77-.38.52-.64.4-.99.94-.24.37-.33.78-.65,1.12-.23.24-.51.4-.77.59-.6.45-.31.96-.66,1.55-.19.31-.53.45-.7.77-.01.02-.01.05-.03.07-1.35,1.49-2.77,2.94-4.2,4.34-.82.8-2.32,2.64-3.46,2.64-.72,0-.95-.51-.95-1.16,0-.92.46-2.11.64-2.6.57-1.45,1.17-2.94,1.93-4.3.76-1.36,1.71-2.55,2.6-3.83,1.84-2.63,4.11-4.93,6.04-7.5,2.04-2.71,3.97-5.61,5.81-8.46.75-1.17.98-2.63,1.87-3.71.47-.57,1.01-1,1.3-1.7.3-.73.33-1.54.33-1.75,0-1.92-.81-3.79-2.01-3.79s-2.25.89-3.04,1.79c-.27.31-.46.59-.85.76-.29.13-.69.2-.95.36-.42.25-.61.91-.92,1.3-.39.5-.23,1.04-.6,1.58-.4.58-.95,1.1-1.35,1.69-.88,1.31-1.72,2.59-2.46,3.98-.41.76-.77,1.55-1.23,2.28-.37.59-.93,1-1.3,1.58-.42.64-.62,1.52-1.04,2.21-.38.63-.77,1.24-1.13,1.89-.37.66-.85,1.12-1.32,1.7-.25.31-.64,1.22-1.05,1.22-.31,0-.52-.34-.74-.56-.24-.24-.56-.39-.84-.57-.74-.45-1.4-.62-2.37-.62-.73,0-1.43.11-2.2.11-.21,0-.43.02-.55.15-.2.22-.15.68-.53.67-.31,0-.63-.27-.87-.27s-.47.1-.73.29c-.36.26-1.07.46-1.34.78-.17.21-.14.51-.29.74-.15.22-.39.36-.61.49-.65.41-1.21.65-1.71,1.24-.52.61-1.19,1.15-1.68,1.79-.42.55-.75,1.16-1.15,1.73-.49.69-.95,1.44-1.52,2.06-.42.47-.85.79-1.09,1.39-.01.03-.02.07-.04.1-1.07,1.2-2.16,2.38-3.3,3.52-1.08,1.08-2.15,2.16-3.5,2.89-.37.2-1.15.68-1.72.68-.37,0-.59-.19-.59-.57,0-.36.19-.81.28-1.05.42-1.09,1.05-1.91,1.65-2.91.44-.72.62-1.47,1.06-2.22.48-.82,1.23-1.64,1.68-2.43.73-1.29,1.61-2.48,2.35-3.77.38-.65.85-1.21.85-2.01,0-.52-.17-1.01-.5-1.42-.52-.65-1.82-1.74-2.74-1.74-.17,0-.33.03-.48.1-.32.14-.56.41-.89.55-.3.13-.63.19-.94.29-.64.21-1.13.64-1.66,1.05-1.17.89-2.25,1.94-3.35,2.91-1.15,1-2.2,2.07-3.2,3.22-.52.6-1.02,1.21-1.55,1.79-.14.15-.69.75-.98.75-.1,0-.19-.07-.19-.26,0-.55.68-1.41.92-1.84.37-.63.75-1.25,1.13-1.87.75-1.21,1.75-2.49,2.14-3.88.07-.24.1-.46.1-.66,0-1.06-.81-1.73-1.74-2.38-.36-.25-.74-.43-1.12-.43-.26,0-.52.08-.78.28-.49.36-.6.72-.9,1.21-.2.32-.23.39-.5.47-.3.09-.46.15-.68.49-.3.45-.18,1.12-.47,1.65-.31.56-.71,1.17-1.11,1.67-.14.18-.48.48-.48.73,0,.07.02.11.03.14-.14.17-.29.4-.47.68-.09.05-.17.1-.22.15-.14.16-.2.33-.24.52-.27.36-.56.71-.86,1.05-.72.82-1.49,1.61-2.22,2.43-1.49,1.69-3,3.36-4.74,4.81-.69.58-1.81,1.9-2.69,1.9-.5,0-.76-.71-.76-1.26,0-.13.02-.26.05-.36.61-1.93,2.01-3.67,3.21-5.25.68-.9,1.31-1.82,1.8-2.84.44-.91,1.11-1.96,1.11-2.91s-.81-1.63-1.52-2.22c-.71-.59-1.4-1.23-2.18-1.73-.5-.32-1.04-.61-1.53-.96-.37-.26-.65-.69-1.01-.93-.17-.11-.32-.15-.45-.15-.2,0-.4.09-.67.14-.16.03-.33.04-.49.05-.29.01-.57,0-.86.04-.46.06-1.27.29-1.7.55-.11.06-.28.19-.28.33s.21.12.21.29c0,.24-.21.31-.45.31-.34,0-.78-.21-1.07-.21s-.38.37-.64.56c-.2.15-.48.16-.66.31-.27.24-.36.64-.65.9-.75.66-1.69,1.09-2.4,1.84-.67.7-1.28,1.34-1.88,2.09-.64.79-1.47,1.54-2,2.39-.24.38-.09.96-.36.96-.16,0-.18-.17-.33-.17-.12,0-.27.15-.37.27-.28.31-.53,1.02-.71,1.44-.07.16-.15.31-.22.46-.7.75-1.4,1.5-2.11,2.25-1,1.06-2.01,2.09-3.18,2.97-1.11.83-2.24,1.81-3.54,2.34-.35.14-.77.3-1.17.3-.9,0-1.45-1.1-1.45-2.18,0-.46.08-.92.15-1.38.08-.56.09-1.13.26-1.67.18-.6.38-1.11.89-1.51.52-.4,1.14-.66,1.68-1.03,1.23-.85,2.33-1.85,3.44-2.84,1.12-1,2.29-1.96,3.34-3.03,1.01-1.03,1.9-2.19,2.82-3.3,1.85-2.25,3.68-4.46,5.3-6.87.81-1.2,1.76-2.28,2.52-3.51.78-1.25,1.48-2.55,2.06-3.91.62-1.46,1.35-3.37,1.35-5.15,0-.94-.34-1.7-.86-2.47-.7-1.02-1.83-1.58-3.04-1.58-1.54,0-2.61.86-3.8,1.66-.2.14-1.08.83-1.3,1-.9.73-1.03,1.2-1.32,1.36-.25.14-.44.35-.67.52-.5.38-1.03.42-1.46.94-.5.59-.86,1.27-1.35,1.87-.46.56-.97,1.09-1.46,1.63-.53.59-1.04,1.12-1.52,1.75-.37.49-.77.93-.98,1.49-.09.24-.2.31-.19.49,0,.14.21.2.21.41,0,.15-.06.3-.41.57-.11.08-.23.25-.37.25-.13,0-.22-.08-.34-.08-.13,0-.33.26-.38.34-.15.25-.19.64-.35.87-.13.19-.36.28-.53.43-.37.33-.6.88-.92,1.32-.44.6-.54,1.45-.86,2.06-.39.74-.95,1.34-1.21,2.14-.2.62-.43,1.2-.79,1.75-.34.52-.62,1.03-.82,1.59-.51,1.43-1.26,2.67-1.84,4.08-.27.66-.54,1.32-.83,1.97-.12.26-.18.56-.24.85-.41.37-.81.73-1.22,1.09-.67.59-1.36,1.2-2.19,1.58-.24.11-.98.41-1.48.41-.27,0-.47-.09-.47-.35,0-.35.72-1.11,1.04-2.05.27-.8.44-1.71.59-2.54.17-.93.63-1.72.76-2.65.07-.51.12-1.01.12-1.52,0-.35-.02-.69-.07-1.04-.12-.89-.67-1.73-1.26-2.48-.52-.66-1.05-1.26-1.79-1.56-.99-.4-2.12-.41-3.16-.41-.87,0-1.64.29-2.42.71-.39.21-.99.44-1.5.75-.41.25-.76.54-.89.91-.12.34-.1.57-.33.68-.18.08-.48.06-.68.18-.13.08-.2.21-.32.29-.28.2-.61.24-.89.49-.27.24-.46.53-.75.74-.2.15-.73.31-.73.63,0,.23.24.23.24.39,0,.19-.36.17-.56.41-.1.12-.04.26-.11.39-.16.28-.45.5-.64.77-.38.52-.64.4-.99.94-.24.37-.33.78-.65,1.12-.23.24-.51.4-.77.59-.6.45-.31.96-.66,1.55-.19.31-.53.45-.7.77-.01.02-.02.05-.03.08-.16.15-.32.31-.48.43-.93.69-1.68,1.17-2.85,1.17-.57,0-1.43-.46-1.43-1.09,0-.48.4-.36.6-.96.08-.25.28-.41.6-.74.48-.49.82-1.06,1.14-1.66.87-1.56,1.97-3.21,1.97-4.95,0-.25-.01-.51-.01-.78,0-.55.09-1.11-.11-1.62-.25-.63-.89-.92-1.58-.92-.39,0-.79.09-1.15.27-2.23,1.13-3.86,4.04-4.74,6.19-.28.67-.49,1.35-.67,2.04-.14.53-.18,1.23-.45,1.72-.12.21-.46.72-.67.85-.15.09-.33.06-.51.19-.2.14-.35.38-.5.57-.27.35-.71.68-.92,1.04-.23.4-.28.76-.57,1.18-.22.31-.5,1.1-.79,1.1-.11,0-.27-.03-.37.05-.16.13-.13.32-.29.49-.18.2-.55.29-.55.58,0,.11.07.28.07.4,0,.09-.04.15-.18.15-.19,0-.13-.4-.37-.4-.2,0-.25.23-.48.37-.18.11-.33.2-.5.32-.35.25-1.15.48-1.15.84,0,.05.05.08.09.08.23,0,.5-.37.69-.37.04,0,.06.03.06.07,0,.07-.06.21-.15.29-.24.22-.54.36-.82.52-.26.14-.83.41-1.19.41-.2,0-.44-.11-.44-.55,0-.31.21-.92.35-1.24.29-.66.36-1.14.51-1.6.21-.65.28-1.04.72-1.63.44-.6.7-1.35,1.07-1.99.35-.62.68-1.23,1.01-1.85.57-1.08,1.22-2.19,1.95-3.18.44-.61.7-1.25,1.03-1.92.23-.47.47-.48.75-.86.18-.24.15-.49.26-.74.09-.22.34-.37.44-.58.1-.21.15-.45.15-.69,0-.78-.5-.87-1.37-1.66-.51-.47-1.02-.73-1.48-.73-.97,0-1.72.64-2.25,1.35-.16.22-.31.46-.49.66-.08.08-.24.15-.39.36-.16.22-.14.74-.38.91-.23.16-.39.16-.62.28-.25.13-.54.61-.75.97-.26.44-.56.59-.88.96-.26.29-.44.63-.44,1.05,0,.16.02.33.02.45,0,.54-.7.94-.98,1.46-.11.21-.08.54-.11.78-.03.23-.1.31-.4.31-.08,0-.17.01-.27.07-.19.11-.41.34-.41.52,0,.16.08.16.08.45,0,.45-.37.78-.37,1.02,0,.15.06.22.08.33.02.11,0,.21.1.21.07,0,.13-.03.21-.03.04,0,.06.03.06.08,0,.14-.07.33-.13.49-.04.1-.13.31-.27.31-.09,0-.11-.1-.11-.22,0-.18.03-.4-.12-.4-.14,0-.34.15-.34.3,0,.28.42.52.42.74,0,.04-.03.07-.08.07-.16,0-.26-.19-.45-.19-.05,0-.1.01-.17.04-.3.13-.52.63-.66.89-.21.38-.3.79-.47,1.18-.11.24-.25.61-.25.92,0,.09.04.17.11.17.26,0,.45-1.44.69-1.44.12,0,.14.2.14.26,0,.19-.17.22-.25.37-.05.09-.15.44-.16.62,0,.15-.01.28-.06.45-.22.8-.83,1.59-.88,2.44-.02.36-.04.7-.04,1.04,0,.74.11,1.42.58,2.01.3.38.39.99.77,1.29.15.12.38.04.52.16.13.12.16.22.25.47.28.81,1.39.98,2.22.98h0c1.33,0,3.16-.71,4.1-1.38,2.43-1.73,4.34-3.75,6.18-6.08.44-.56,1.02-1.3,1.38-1.64.12-.11.21-.15.28-.15.16,0,.38.26.65.44,1.12.76,2.09.89,3.07.89.91,0,1.78-.16,2.62-.45.03.11.08.21.08.32,0,.31-.14.52-.14.84,0,.55.3,1.15.3,1.7,0,.27-.17.46-.17.7,0,.2.11.36.18.54.27.76.63,1.52,1.12,2.17,1.14,1.51,2.88,2.24,4.75,2.24,2.21,0,4.06-.83,5.76-2.1,1.72-1.29,2.88-3.09,4.14-4.8.24-.32.6-.77.92-.77s.65.15,1.04.15c1.08,0,2.18-.19,3.2-.53.7-.24,1.32-.57,1.92-.93-.03.36-.07.72-.07,1.08,0,.7.06,1.4.21,2.11.57,2.69,2.64,5.38,5.06,5.38h0c1.43,0,2.61-.43,3.84-1.17,2.07-1.25,3.9-2.82,5.61-4.52.08,1.02.31,2.17.82,3.13.62,1.19,1.65,2.09,3.29,2.09.69,0,1.37-.16,2.04-.43.5-.2,1.12-.38,1.48-.78.31-.34.47-.79.77-1.15.8-.93,1.55-1.85,2.44-2.7.37-.35,1.1-1.73,1.77-1.75.66-.02.6,1.21.66,1.76.06.52.15.93.35,1.42.41.98.77,1.89,1.8,2.35.45.2.91.28,1.38.28,1.59,0,3.19-1.02,4.38-1.95.5-.39.98-.81,1.45-1.24-.06.31-.09.64-.09.97,0,.22,0,.43.02.61.06.78.28,1.32.86,1.85.38.34.89.85,1.35,1.07.15.07.29.1.44.1h0c.49,0,.97-.39,1.39-.86.47-.53.86-1.16,1.12-1.5,1.85-2.49,4.04-4.71,6.16-6.97,1.05-1.12,2.07-2.27,3.16-3.36.58-.58,1.15-1.23,1.82-1.71.17-.12.3-.17.38-.17.13,0,.18.1.18.25,0,.16-.06.37-.16.57-.28.54-.85,1.26-.85,1.91,0,.34.25.59.25.91s-.15.71-.32.95c-.38.51-.81.51-.81,1.06,0,.27.12.6.12.76,0,.34-.27.61-.41.61-.2,0-.14-.46-.37-.46-.05,0-.18.06-.29.2-.15.2-.3.95-.3,1.41,0,.5.1,1.01.3,1.47.31.69.69,1.25.87,1.99.16.65.65,1.13,1.17,1.52.71.54,1.49.76,2.28.76,1.9,0,3.9-1.24,5.38-2.27.96-.67,1.82-1.44,2.65-2.26.18,1.44.62,3.08,1.69,4.12.69.67,1.54.95,2.42.95h0c.58,0,1.17-.12,1.73-.34.72-.28,1.44-.7,2.04-1.18.57-.46.83-1,1.28-1.54.41-.49,1-.69,1.4-1.19.43-.53.74-1.08,1.21-1.59.22-.23,1.08-1.26,1.65-1.9.29-.33.53-.53.72-.53.29,0,.32.49.32.68,0,.43-.09.87-.09,1.26,0,.77.37,1.9.53,2.35.25.71.74,1.37,1.23,1.94.77.9,1.72,1.4,2.87,1.4,2.62,0,4.87-2.3,6.54-4.13.27-.29.54-.59.81-.89.05.21.09.42.09.62,0,.27-.17.46-.17.7,0,.2.11.36.18.54.27.76.63,1.52,1.12,2.17,1.14,1.51,2.88,2.24,4.75,2.24,2.21,0,4.06-.83,5.76-2.1,1.72-1.29,2.88-3.09,4.14-4.8.24-.32.6-.77.92-.77s.65.15,1.04.15c1.08,0,2.18-.19,3.2-.53,2.06-.7,3.64-2.01,5.11-3.58,1.03-1.11,1.8-2.23,2.23-3.57.26-.81.4-1.69.4-2.7,0-.52-.11-1.05-.5-1.05Zm-108.76-1.59c.94-1.57,1.64-3.32,2.7-4.82.56-.8,1.25-1.5,1.75-2.35.37-.62.55-1.45,1.06-1.97.36-.37.68-.59.94-1.05.22-.38.44-.66.72-1,.57-.71,1-1.51,1.59-2.21.59-.7,1.34-1.16,1.98-1.79.63-.61,1.09-1.39,1.6-2.1.25-.34,1.91-2.34,2.73-2.34.24,0,.45.15.45.56,0,.98-.8,1.92-1.29,2.72-.57.93-1.17,1.84-1.81,2.72-1.24,1.72-2.49,3.42-3.65,5.21-1.02,1.58-2.24,2.97-3.39,4.45-1.18,1.53-2.31,2.94-3.75,4.23-.28.24-1.64,1.99-2.21,1.99h0c-.14,0-.22-.08-.22-.31,0-.48.67-1.74.8-1.95Zm-21.99,12.64c-.69.82-1.35,1.44-2.25,2.01-.39.24-.59.54-.92.83-.38.33-.99.37-1.28.37-.53,0-.77-.46-.77-1.41,0-1.07.47-2.96,1.02-3.84.6-.94,1.16-1.9,1.76-2.84.18-.28.79-1.04,1.18-1.04.41,0,.52.55.63.87.18.53.32,1.02.68,1.47.32.38.76.66,1.05,1.07.14.21.21.41.21.61,0,.72-.84,1.34-1.31,1.9Zm6.43-11.63c-.43,1.6-.96,3-1.72,4.46-.19.36-.4,1.26-.88,1.26-.75,0-.86-1.29-.86-2.21,0-1.34.47-3.24,1.41-4.24.35-.37,1.01-.86,1.59-.86.53,0,.73.31.73.63s-.2.68-.27.95Zm37.35,1.84c-.28.7-.66.88-1.19,1.45-1.03,1.11-1.75,2.51-2.79,3.62-.45.49-1.05.73-1.49,1.2-.42.44-.73.98-1.14,1.43-.95,1.03-2.14,2.12-3.32,2.87-.28.18-.68.36-.94.36-.16,0-.27-.07-.27-.25,0-.1.02-.24.11-.42.24-.5.43-1,.57-1.61.14-.63.42-1.22.75-1.79.45-.76,1-1.47,1.51-2.15.88-1.2,1.85-2.4,2.82-3.53.92-1.07,2.12-1.9,3.24-2.75.8-.61,2.14-1.51,3.19-1.51.79,0,1.26.66,1.26,1.11,0,.41-.77.68-1.22.78-.6.13-.91.77-1.09,1.21Zm50.1-.28c-.99,1.23-2.06,2.39-3.1,3.57-.94,1.05-1.87,2.12-2.87,3.12-.98,1-2.08,1.83-3.1,2.77-.45.42-.56,1.03-1,1.43-.33.31-.94.92-1.41.92h0c-.28,0-.47-.15-.47-.57,0-.77.46-2.04.59-2.36,1.01-2.56,2.85-4.8,4.66-6.85.96-1.08,1.94-2.21,3.04-3.07,1.13-.89,2.39-1.5,3.59-1.5.5,0,1.18.07,1.19.72.01.6-.77,1.38-1.12,1.81Zm19,10.08c-.69.82-1.35,1.44-2.25,2.01-.39.24-.59.54-.92.83-.38.33-.99.37-1.28.37-.53,0-.77-.46-.77-1.41,0-1.07.47-2.96,1.02-3.84.6-.94,1.16-1.9,1.76-2.84.18-.28.79-1.04,1.18-1.04.41,0,.52.55.63.87.18.53.32,1.02.68,1.47.31.38.76.66,1.05,1.07.14.21.21.41.21.61,0,.72-.84,1.34-1.31,1.9Zm6.43-11.63c-.43,1.6-.96,3-1.72,4.46-.19.36-.4,1.26-.88,1.26-.75,0-.86-1.29-.86-2.21,0-1.34.46-3.24,1.41-4.24.35-.37,1.01-.86,1.59-.86.53,0,.73.31.73.63s-.2.68-.27.95Z"/>
      <path class="cls-1" d="m330.28,29.03c-.35,0-.65.75-1.25,1.54-.29.39-.6.76-.92,1.12-.72.82-1.49,1.61-2.22,2.43-1.5,1.69-3,3.36-4.74,4.81-.69.58-1.8,1.9-2.69,1.9-.5,0-.76-.71-.76-1.26,0-.13.02-.26.05-.36.61-1.93,2.01-3.67,3.21-5.25.68-.9,1.31-1.82,1.8-2.84.44-.91,1.11-1.96,1.11-2.91s-.81-1.63-1.52-2.22c-.71-.59-1.4-1.23-2.18-1.73-.51-.32-1.04-.61-1.53-.96-.37-.26-.65-.69-1.01-.93-.17-.11-.32-.15-.45-.15-.2,0-.4.09-.67.14-.16.03-.32.04-.49.05-.28.01-.57,0-.86.04-.46.06-1.27.29-1.7.55-.11.06-.28.19-.28.33s.21.12.21.29c0,.24-.21.31-.45.31-.34,0-.78-.21-1.07-.21s-.38.37-.64.56c-.2.15-.48.16-.66.31-.27.24-.36.64-.65.9-.75.66-1.69,1.09-2.4,1.84-.66.7-1.28,1.34-1.88,2.09-.64.79-1.46,1.54-2,2.39-.11.17-.14.38-.16.56-.1.12-.2.23-.3.35-.07-.05-.13-.12-.23-.12-.12,0-.26.15-.37.27-.26.29-.49.9-.67,1.33-1.1,1.25-2.23,2.47-3.41,3.65-1.08,1.08-2.15,2.16-3.5,2.89-.37.2-1.15.68-1.72.68-.37,0-.59-.19-.59-.57,0-.36.19-.81.28-1.05.42-1.09,1.05-1.91,1.65-2.91.44-.72.62-1.47,1.06-2.22.48-.82,1.23-1.64,1.68-2.43.73-1.29,1.61-2.48,2.35-3.77.38-.65.85-1.21.85-2.01,0-.52-.17-1.01-.5-1.42-.52-.65-1.82-1.74-2.74-1.74-.17,0-.33.03-.48.1-.32.14-.56.41-.89.55-.3.13-.63.19-.94.29-.64.21-1.13.64-1.66,1.05-1.17.89-2.25,1.94-3.35,2.91-1.15,1-2.2,2.07-3.2,3.22-.52.6-1.02,1.21-1.55,1.79-.14.15-.69.75-.98.75-.1,0-.19-.07-.19-.26,0-.55.68-1.41.93-1.84.37-.63.75-1.25,1.13-1.87.75-1.21,1.75-2.49,2.14-3.88.07-.24.1-.46.1-.66,0-1.06-.81-1.73-1.74-2.38-.36-.25-.74-.43-1.12-.43-.26,0-.52.08-.78.28-.49.36-.6.72-.9,1.21-.2.32-.23.39-.5.47-.3.09-.46.15-.68.49-.3.45-.18,1.12-.47,1.65-.31.56-.71,1.17-1.11,1.67-.14.18-.48.48-.48.73,0,.18.08.18.08.35,0,.31-.56.43-.74.62-.16.18-.21.38-.26.58-.06.07-.11.15-.17.21-.32.35-.77.84-1.1,1.18-.72.75-1.48,1.47-2.23,2.19-.76.73-1.46,1.53-2.24,2.25-.84.78-1.77,1.47-2.67,2.17-1.61,1.25-3.39,2.34-5.3,3.21-.93.42-1.93,1.18-3.6,1.18-.79,0-1.28-.16-1.65-.83-.15-.26-.37-.94-.37-1.29,0-.73.21-1.53.42-2.11.25-.69.94-2.03,1.62-2.03.41,0,.88.47,1.29.67.43.21.91.38,1.39.38,1.03,0,2.01-.5,2.92-.93,1.89-.9,3.87-1.85,5.16-3.56,1.19-1.58,2.38-3.87,2.38-5.86,0-1.03-.77-2.87-.91-3.07-.67-.98-1.59-1.56-2.75-1.79-.44-.09-.9-.21-1.35-.21-.72,0-1.44.21-2.07.62-.4.25-.8.49-1.28.58-.46.08-.97.02-1.41.25-.36.2-.68.61-1.02.86-.41.3-.52.68-.85,1.05-.38.43-.94.69-1.31,1.04-.42.39-.79.78-1.14,1.23-.72.93-1.58,1.75-2.2,2.75-.62.99-1.19,2.01-1.87,2.97-.3.42-.55.86-.77,1.3-1.64,1.75-3.31,3.49-5.2,4.96-.45.35-3.78,3-5.04,3-.3,0-.48-.15-.48-.51,0-.53.48-1.22.71-1.64.31-.56.65-1.11,1-1.64.68-1.07,1.42-2.12,2.2-3.11,1.51-1.9,3.51-3.43,4.84-5.48.48-.74.9-1.57.9-2.44,0-1.45-1.3-2.54-2.09-3.67-.47-.68-.92-1.68-1.78-1.68-.74,0-1.05.56-1.76.56-.21,0-.44-.05-.64,0-.28.08-.46.29-.69.39-.49.21-.75.06-1.25.17-.53.12-1.15.47-1.51.47-.67,0-1.26-.6-1.72-1.01-.14-.12-.21-.25-.43-.38-.12-.07-.34-.04-.51-.09-.24-.07-.25-.14-.44-.14-.09,0-.22.05-.38.17-.18.14-.26.4-.4.58-.11.14-.39.33-.46.48-.09.19-.12.41-.12.63,0,.38.09.79.09,1.11,0,.5-.07.94-.31,1.42-.13.28-.33.44-.33.78,0,.16.06.35.06.52,0,.59-.48.85-.83,1.4-.3.46-.43.99-.74,1.44-.68,1.02-1.51,1.97-2.28,2.92-.46.57-1.01,1.09-1.17,1.72-.03.03-.05.06-.08.08-1.06,1.02-2.24,1.92-3.3,2.95-1.11,1.08-2.33,2.05-3.73,2.73-.28.14-.7.33-1.07.33-.43,0-.69-.31-.68-.7.01-.45.31-1,.47-1.32.37-.76.84-1.47,1.28-2.19.43-.69.54-1.41.91-2.11.64-1.22,1.53-2.23,2.32-3.34.96-1.34,1.61-2.84,2.5-4.22.83-1.29,1.82-2.47,2.59-3.8.66-1.13,1.18-2.83,2.49-3.29.35-.12.54-.22.54-.34,0-.13-.15-.17-.15-.3,0-.11.2-.15.35-.15.36,0,.45.12.77.12s.62-.11.91-.19c.16-.05.45-.13.8-.13.42,0,.99-.11,1.33-.11.37,0,.65.09.98.09s.69-.05,1.05-.1c.83-.1,1.61-.16,2.4-.45.63-.23,1.31-.29,1.93-.54.39-.16.54-.52.54-.82,0-.27-.11-.48-.27-.78-.24-.47-.31-1.17-.7-1.53-.55-.5-1.95-.62-2.51-.62s-1.16,0-1.55.06c-.54.1-1,.2-1.54.2-.39,0-.91-.14-.91-.43,0-.25.3-.56.48-.84.43-.66.84-1.33,1.32-1.94.56-.71,1.11-1.35,1.11-2.41,0-1.16-.79-2.04-1.84-2.6-.42-.23-1.01-.61-1.54-.61-.72,0-.88.8-1.24,1.31-.24.33-.48.58-.62.98-.09.26-.15.53-.3.77-.33.55-.8,1.08-1.19,1.61-.82,1.1-1.78,2.07-2.58,3.19-.37.52-.65,1.08-1.31,1.27-.62.18-2,.12-2.64.2-1.57.2-2.46.41-4.03.65-.85.13-1.73.21-2.57.38-.31.06-.41.21-.41.4,0,.24.16.54.27.84.21.6.38,1.42.97,1.77.6.35,1.43.21,2.01.6.35.23.52.34.97.4.24.03.34.08.6.08.35,0,.52-.09.77-.09.22,0,.47.03.47.43,0,.62-.75,1.45-1.11,1.97-.39.58-.77,1.16-1.19,1.72-.35.46-.47,1-.8,1.44-.15.2-.38.32-.52.53-.13.19-.16.44-.28.64-.21.37-2.28,2.49-2.28,3.06,0,.08.03.13.13.13.07,0,.13-.04.19-.07-.02.02-.03.04-.05.06-1.98,2.36-4,4.69-6.18,6.87-1.08,1.08-2.15,2.16-3.5,2.89-.37.2-1.15.68-1.72.68-.37,0-.59-.19-.59-.57,0-.36.19-.81.28-1.05.42-1.09,1.05-1.91,1.65-2.91.44-.72.62-1.47,1.06-2.22.48-.82,1.23-1.64,1.68-2.43.73-1.29,1.61-2.48,2.35-3.77.38-.65.85-1.21.85-2.01,0-.52-.17-1.01-.5-1.42-.52-.65-1.82-1.74-2.74-1.74-.17,0-.33.03-.48.1-.32.14-.56.41-.89.55-.3.13-.63.19-.94.29-.64.21-1.12.64-1.65,1.05-1.17.89-2.25,1.94-3.35,2.91-1.15,1-2.2,2.07-3.2,3.22-.52.6-1.02,1.21-1.55,1.79-.14.15-.69.75-.98.75-.1,0-.19-.07-.19-.26,0-.55.68-1.41.92-1.84.37-.63.75-1.25,1.14-1.87.75-1.21,1.75-2.49,2.14-3.88.07-.24.1-.46.1-.66,0-1.06-.81-1.73-1.74-2.38-.36-.25-.74-.43-1.12-.43-.26,0-.52.08-.78.28-.49.36-.6.72-.9,1.21-.2.32-.23.39-.5.47-.3.09-.46.15-.68.49-.3.45-.18,1.12-.47,1.65-.31.56-.71,1.17-1.11,1.67-.14.18-.48.48-.48.73,0,.18.08.18.08.35,0,.31-.56.43-.74.62-.16.18-.21.38-.26.58-.06.07-.11.15-.17.22-.32.35-.77.84-1.1,1.18-.72.75-1.48,1.47-2.23,2.19-.76.73-1.46,1.53-2.24,2.25-.84.78-1.77,1.47-2.67,2.17-1.61,1.25-3.39,2.34-5.3,3.21-.93.42-1.93,1.18-3.6,1.18-.79,0-1.28-.16-1.65-.83-.15-.26-.37-.94-.37-1.29,0-.73.21-1.53.42-2.11.25-.69.94-2.03,1.62-2.03.41,0,.88.47,1.29.67.43.21.91.38,1.39.38,1.03,0,2.01-.5,2.92-.93,1.89-.9,3.87-1.85,5.16-3.56,1.19-1.58,2.38-3.87,2.38-5.86,0-1.03-.77-2.87-.91-3.07-.67-.98-1.59-1.56-2.75-1.79-.44-.09-.9-.21-1.35-.21-.72,0-1.44.21-2.07.62-.4.25-.8.49-1.28.58-.46.08-.97.02-1.41.25-.36.2-.68.61-1.02.86-.41.3-.52.68-.85,1.05-.38.43-.94.69-1.31,1.04-.42.39-.79.78-1.14,1.23-.72.93-1.58,1.75-2.2,2.75-.62.99-1.2,2.01-1.87,2.97-1.17,1.65-1.63,3.46-2.09,5.42-.03.14-.05.27-.05.39,0,.32.12.79.12,1.32,0,.34-.13.67-.13,1,0,.36.18.49.41.77.17.21.17.41.22.67.07.39.04.88.25,1.22.23.37.7.33.91.71.2.36.19.7.49,1.05.59.69,1.43,1.06,2.29,1.28.77.2,1.55.3,2.33.3,1.32,0,2.63-.28,3.86-.8,1.95-.84,3.83-1.92,5.48-3.27.7-.57,1.4-1.17,2.09-1.77,0,0,0,0,0,.01-.09.16-.31.29-.4.5-.16.38-.21.94-.21,1.44,0,.22,0,.43.02.61.06.78.28,1.32.86,1.85.38.34.89.85,1.35,1.07.15.07.29.1.44.1h0c.49,0,.97-.39,1.39-.86.47-.53.86-1.16,1.12-1.5,1.85-2.49,4.04-4.71,6.16-6.97,1.05-1.12,2.07-2.27,3.16-3.36.58-.58,1.15-1.23,1.82-1.71.17-.12.3-.17.39-.17.13,0,.18.1.18.25,0,.16-.06.37-.16.57-.28.54-.85,1.26-.85,1.91,0,.34.25.59.25.91s-.15.71-.32.95c-.38.51-.81.51-.81,1.06,0,.27.12.6.12.76,0,.34-.27.61-.41.61-.2,0-.14-.46-.37-.46-.05,0-.18.06-.29.2-.15.2-.3.95-.3,1.41,0,.5.1,1.01.3,1.47.31.69.69,1.25.87,1.99.16.65.65,1.13,1.17,1.52.71.54,1.49.76,2.28.76,1.9,0,3.9-1.24,5.38-2.27,1.23-.86,2.32-1.86,3.35-2.94-.04.2-.07.42-.07.61,0,.51.08.93.12,1.47.06.81.39,1.19.88,1.83.93,1.23,2.31,1.78,3.41,1.78h0c1.58,0,2.92-.55,4.18-1.35,2.72-1.73,5.09-4.09,7.29-6.43,1.1-1.17,2.13-2.39,3.14-3.64.5-.62,1-1.24,1.35-1.96.15-.3.21-.6.26-.9.33-.45.65-.91.97-1.37.31-.46.85-1.24,1.19-1.66.34-.42.48-.47,1.09-.55.3-.04.83-.12,1.33-.12.31,0,.43.08.61.13.23.05.42.08.42.23,0,.12-.18.29-.34.46-.31.33-.27.62-.6.98-.4.44-.94.72-1.34,1.15-.82.88-1.5,1.92-2.19,2.9-.29.4-.53.61-.53.84,0,.34.2.33.2.63,0,.41-.33.69-.57,1.01-.33.44-.7.63-1.01,1.08-.33.48-.81.91-1.03,1.45-.14.34-.17.79-.17,1.27,0,.56.05,1.14.05,1.59,0,1.35.22,2.37.95,3.22.85.99,2.06,1.56,3.27,1.56h0c1.66,0,3.15-.37,4.61-1.16.8-.44,1.77-1.23,2.51-1.82,1.3-1.03,2.54-2.2,3.7-3.39-.02.11-.05.22-.05.34,0,.36.18.49.41.77.17.21.17.41.22.67.07.39.04.88.25,1.22.23.37.7.33.91.71.2.36.19.7.48,1.05.59.69,1.43,1.06,2.29,1.28.77.2,1.55.3,2.33.3,1.32,0,2.63-.28,3.86-.8,1.95-.84,3.83-1.92,5.48-3.27.7-.57,1.4-1.17,2.09-1.77,0,0,0,0,0,.01-.09.16-.31.29-.4.5-.16.38-.21.94-.21,1.44,0,.22,0,.43.02.61.06.78.28,1.32.86,1.85.38.34.89.85,1.35,1.07.15.07.29.1.44.1h0c.49,0,.97-.39,1.39-.86.47-.53.86-1.16,1.12-1.5,1.85-2.49,4.04-4.71,6.16-6.97,1.05-1.12,2.07-2.27,3.16-3.36.58-.58,1.15-1.23,1.82-1.71.17-.12.3-.17.39-.17.13,0,.18.1.18.25,0,.16-.06.37-.16.57-.28.54-.85,1.26-.85,1.91,0,.34.25.59.25.91s-.15.71-.32.95c-.38.51-.81.51-.81,1.06,0,.27.12.6.12.76,0,.34-.27.61-.41.61-.2,0-.14-.46-.37-.46-.05,0-.18.06-.29.2-.15.2-.3.95-.3,1.41,0,.5.1,1.01.3,1.47.31.69.69,1.25.87,1.99.16.65.65,1.13,1.17,1.52.71.54,1.49.76,2.28.76,1.9,0,3.9-1.24,5.38-2.27,1.09-.76,2.07-1.65,2.99-2.6.09,1,.32,2.12.82,3.06.62,1.19,1.65,2.09,3.29,2.09.69,0,1.37-.16,2.04-.43.5-.2,1.12-.38,1.48-.78.31-.34.47-.79.77-1.15.8-.93,1.55-1.85,2.44-2.7.37-.35,1.1-1.73,1.77-1.75.66-.02.6,1.21.66,1.76.06.52.15.93.36,1.42.41.98.77,1.89,1.8,2.35.45.2.91.28,1.38.28,1.59,0,3.19-1.02,4.38-1.95,1.73-1.34,3.26-2.97,4.73-4.59,1.46-1.61,3.26-3.34,4.21-5.31.52-1.08.34-2,.44-3.14.02-.2.33-1.18.33-1.78,0-.28-.07-.47-.26-.47Zm-65.13,3.28c.39-.72.84-1.3,1.5-1.79.74-.55,1.21-1.27,1.84-1.92.47-.49,1.43-1.34,2.11-1.34.28,0,.37.15.37.37,0,.46-.43,1.21-.56,1.48-.39.81-.85,1.61-1.34,2.37-.44.67-1.05,1.25-1.81,1.75-.88.57-1.92,1.01-2.45,1.01h0c-.26,0-.34-.15-.34-.36,0-.47.56-1.33.69-1.57Zm-78.39,0c.39-.72.84-1.3,1.5-1.79.74-.55,1.21-1.27,1.84-1.92.47-.49,1.43-1.34,2.11-1.34.28,0,.37.15.37.37,0,.46-.43,1.21-.56,1.48-.39.81-.85,1.61-1.34,2.37-.44.67-1.05,1.25-1.81,1.75-.88.57-1.92,1.01-2.45,1.01h0c-.26,0-.34-.15-.34-.36,0-.47.56-1.33.69-1.57Zm129.44-1.87c-.28.7-.66.88-1.19,1.45-1.03,1.11-1.75,2.51-2.79,3.62-.45.49-1.05.73-1.49,1.2-.42.44-.73.98-1.14,1.43-.95,1.03-2.14,2.12-3.32,2.87-.28.18-.68.36-.94.36-.16,0-.27-.07-.27-.25,0-.1.02-.24.11-.42.24-.5.43-1,.57-1.61.15-.63.42-1.22.76-1.79.45-.76,1-1.47,1.51-2.15.88-1.2,1.85-2.4,2.82-3.53.92-1.07,2.12-1.9,3.24-2.75.8-.61,2.14-1.51,3.19-1.51.79,0,1.26.66,1.26,1.11,0,.41-.77.68-1.22.78-.6.13-.91.77-1.09,1.21Z"/>
      <path class="cls-1" d="m518.07,1.53c-.41-.19-.61-.3-.86-.67-.14-.21-.24-.39-.48-.51-.48-.25-1.24-.34-1.95-.34-.62,0-1.07.45-1.22,1.13-.1.46-.07.72-.3,1.14-.19.35-.31.57-.34.97-.03.45,0,.66-.28,1.02-.22.28-.46.5-.65.81-.24.39-.21.68-.34,1.09-.11.35-.34.6-.59.83-.48.44-.67,1.09-.97,1.67-.34.64-.48.84-.98,1.37-.37.4-1.23,1.96-1.73,2.48-.42.44-.78.38-.79.89-.03.98,2,1.78,3.15,1.78,1.52,0,2.27-1.13,3.35-2.2.51-.5.91-.98,1.33-1.56.48-.65,1.02-1.25,1.5-1.91.48-.65.75-1.44,1.06-2.17.31-.72.62-1.44.83-2.2.19-.7.3-1.45.54-2.13.13-.38.29-.66.29-.89,0-.22-.14-.4-.56-.6Z"/>
      <path class="cls-1" d="m165.77,29c-.14,0-.3.13-.46.31-.73.82-1.21,1.66-2.07,2.38-.89.74-1.39,1.67-2.18,2.47-.82.82-1.59,1.65-2.38,2.51-1.58,1.73-2.9,3.16-4.73,4.61-.85.69-2.16,2.16-3.01,2.16-.11,0-.17-.05-.17-.16,0-.11.08-.28.18-.48.27-.52.55-1.03.82-1.55.51-.96.97-2.03,1.71-2.82.32-.34.55-.53.7-.99.16-.51.26-.95.51-1.45.47-.95.98-1.86,1.48-2.79.46-.86.67-1.83,1.16-2.67.88-1.5,2.47-3.39,2.47-5.3,0-1-.26-1.4-.63-1.61-.44-.24-1.03-.2-1.54-.51-.35-.21-.54-.33-.81-.33-.51,0-.96.29-1.32.66-.66.69-1.3,1.41-1.84,2.2-.74,1.07-1.57,2.19-2.39,3.24-.7.91-1.39,1.84-2.19,2.68-.69.72-1.44,1.41-2.04,2.21-.74.98-1.36,2-2.2,2.91-.79.86-1.59,1.71-2.41,2.54-.79.79-1.65,1.52-2.54,2.19-.28.21-.52.31-.71.31-.28,0-.43-.22-.43-.56,0-.18.04-.4.14-.64.42-1.12,1.23-2.13,1.88-3.12.59-.9,1.05-1.85,1.59-2.77.28-.48.73-.76,1.07-1.19.32-.4.52-.9.79-1.34.53-.87,1.14-1.69,1.7-2.54.68-1.01,1.43-2.15,1.43-3.22,0-.65-.28-1.28-1.03-1.85-.55-.42-1.32-.92-2.04-.92-.27,0-.53.07-.78.25-.81.58-1.39,1.56-1.97,2.35-.39.52-.77,1.04-1.16,1.57-.25.34-.68.75-.83,1.16-.19.53.07.75-.37,1.11-.15.12-.37.07-.55.23-.09.08-.2.31-.25.39-.58.79-1.75,1.48-1.75,2.34,0,.18.11.24.18.24.31,0,.61-.88.87-.88.04,0,.07.03.07.15s-.1.36-.17.48c-.25.41-.61.76-.88,1.16-.29.43-.45.92-.75,1.33-.29.4-.68.7-.93,1.13-.29.5-.45,1.01-.79,1.48-.28.4-.61.79-.79,1.25-.24.63-.41,2.05-.41,3,0,1.08.33,2.14.72,3.06.57,1.36,1.67,2.08,2.99,2.08,1.72,0,3.49-1.29,4.69-2.33,1.76-1.52,3.16-3.35,4.69-5.09.09-.1.59-.76.81-.76.08,0,.12.05.12.16,0,.27-.31.88-.39,1.03-.23.44-.64.75-.94,1.14-.33.42-.4.81-.56,1.32-.31,1.02-1.02,2-1.57,2.92-.49.79-1.02,1.6-1.78,2.17-.92.69-2.15,1.05-3.19,1.53-.96.44-1.74,1.1-2.7,1.56-.98.46-1.68,1.05-2.65,1.5-.78.37-1.23.9-1.92,1.44-.11.09-.74.61-1.1.92-.18.15-.63.39-.81.54-.31.27-.56.51-.88.75-.65.48-1.43,1.51-2.04,2.35-.63.86-.81,1.22-1.32,2.08-.46.77-.46,1.29-.54,2.05-.08.77-.34,1.25-.35,1.84,0,.47.39.73.38.93-.02.38-.34.34-.35.67,0,.21.14.35.25.58.03.06.19.38.24.53.13.43.38,1.05.65,1.44.27.38.6.55.9.8.35.29.59.55.92.83.53.45,1.7.62,2.29.62,1.39,0,2.64-.72,3.73-1.43.87-.58,1.58-1.13,2.31-1.89.82-.84,1.38-.97,2.13-1.87,1.08-1.29,1.55-1.84,2.87-4.01.63-1.04,1.33-2.05,1.91-3.12.53-.98,1-2.02,1.6-2.97.6-.95,1.45-1.67,1.85-2.73.34-.87.69-1.51,1.44-2.09,1.6-1.27,3.13-2.5,4.83-3.68,2.28-1.58,4.14-3.33,6.16-5.25,1.65-1.58,3.19-3.29,4.64-5.06.78-.95,1.48-1.95,2.02-3.06.24-.5.47-1.03.59-1.58.04-.2.06-.39.06-.57,0-.34-.03-.67.01-1.02.05-.41.38-.75.39-1.13,0-.29-.14-.5-.32-.5Zm-26.52,25.47c-.63,1.26-1.9,2.52-2.53,3.81-.32.64-.72,1.31-1.25,1.8-.39.36-.55.64-1.38,1.66-.93,1.12-2.21,1.99-3.29,2.96-.47.42-1.09,1.05-1.71,1.05h0c-.29,0-.44-.16-.43-.48.01-.8.44-2.09,1.42-3.36.45-.59.8-1.14,1.16-1.78.33-.58.87-.89,1.39-1.3.17-.14.7-.59,1.23-1.07.57-.52,1.09-1.18,1.37-1.43.4-.34,1.63-.93,2-1.19.54-.38.91-.76,1.51-1.07.21-.11.38-.17.5-.17.1,0,.16.05.16.16,0,.09-.04.21-.12.38Z"/>
    </g>
  </g>
</svg>