<?xml version="1.0" encoding="UTF-8"?>
<svg id="Layer_2" data-name="Layer 2" xmlns="http://www.w3.org/2000/svg" viewBox="0 0 409.55 30.76">
  <defs>
    <style>
      .cls-1 {
        fill: #49148A;
      }
    </style>
  </defs>
  <g id="Layer_1-2" data-name="Layer 1">
    <g>
      <path class="cls-1" d="m8.91,11.81c-1.84-.61-3.56-1.23-3.56-2.81,0-1.33,1.36-2.23,3.27-2.23s3.33.81,4.46,1.81c.68.58,1.29.42,1.84-.16l.74-.87c.65-.68.39-1.33-.23-1.84-1.62-1.49-3.98-2.49-6.89-2.49C4.03,3.2.89,5.69.89,9.25c0,3.82,3.46,5.34,6.15,6.21,2.85.97,5.21,1.23,5.21,3.33,0,1.46-1.46,2.46-3.78,2.46-1.81,0-4.11-.91-5.43-2.39-.65-.61-1.29-.45-1.88.16l-.74.87c-.65.65-.45,1.29.13,1.88,1.84,2.07,4.92,3.23,8.18,3.23,4.46,0,7.99-2.3,7.99-6.24,0-4.72-4.24-5.76-7.8-6.95Z"/>
      <path class="cls-1" d="m34.55,8.28h-1.88c-.78,0-1.2.45-1.2,1.23v8.28c0,2.13-1.29,3.53-3.33,3.53s-3.2-1.39-3.2-3.43v-8.38c0-.78-.45-1.23-1.23-1.23h-1.88c-.78,0-1.2.45-1.2,1.23v8.86c0,3.98,2.62,6.66,6.57,6.66,2.33,0,3.95-1.04,4.95-2.55v.87c0,.78.45,1.26,1.23,1.26h1.16c.78,0,1.23-.48,1.23-1.26v-13.84c0-.78-.45-1.23-1.23-1.23Z"/>
      <path class="cls-1" d="m50.17,8.02c-2.17,0-4.04.84-5.47,2.17v-.68c0-.78-.45-1.23-1.23-1.23h-1.2c-.78,0-1.23.45-1.23,1.23v20.02c0,.78.45,1.23,1.23,1.23h1.88c.78,0,1.2-.45,1.2-1.23v-6.11c1.29,1,2.94,1.62,4.82,1.62,4.75,0,8.15-3.78,8.15-8.51s-3.4-8.51-8.15-8.51Zm-.65,13.26c-2.46,0-4.43-1.71-4.43-4.75s2.01-4.79,4.43-4.79c2.72,0,4.5,2.13,4.5,4.79s-1.78,4.75-4.5,4.75Z"/>
      <path class="cls-1" d="m69.95,8.02c-4.88,0-8.47,3.62-8.47,8.51,0,5.18,3.95,8.51,8.8,8.51,2.3,0,5.18-.78,6.82-2.46.36-.39.61-.87,0-1.49l-.78-.78c-.52-.55-.97-.45-1.55,0-1.42,1.1-2.85,1.46-4.11,1.46-2.49,0-4.69-1.52-4.95-4.27h11.19c.97,0,1.33-.42,1.33-1.33,0-2.26-.84-4.4-2.36-5.89-1.39-1.39-3.46-2.26-5.92-2.26Zm-4.2,6.82c.32-2.23,1.91-3.66,4.14-3.66,1.23,0,2.26.42,2.98,1.2.61.61,1,1.46,1.16,2.46h-8.28Z"/>
      <path class="cls-1" d="m92.43,8.31c-.65-.19-1.23-.29-2.04-.29-1.84,0-3.3.94-4.33,2.49v-1c0-.78-.45-1.23-1.23-1.23h-1.23c-.78,0-1.23.45-1.23,1.23v13.84c0,.78.45,1.26,1.23,1.26h1.88c.78,0,1.2-.48,1.2-1.26v-7.7c0-2.33,1.2-3.95,3.33-3.95.45,0,.97.1,1.42.26.55.16,1.07.06,1.29-.74l.42-1.62c.23-.87-.23-1.13-.71-1.29Z"/>
      <path class="cls-1" d="m117.68,3.59h-12.32c-.97,0-1.52.55-1.52,1.52v17.98c0,.97.55,1.52,1.52,1.52h2.65c.97,0,1.52-.55,1.52-1.52v-6.44h5.76c.97,0,1.52-.52,1.52-1.49v-1.36c0-.97-.55-1.52-1.52-1.52h-5.76v-4.07h8.15c1,0,1.52-.55,1.52-1.52v-1.58c0-1-.52-1.52-1.52-1.52Z"/>
      <path class="cls-1" d="m136.14,8.28h-2.68c-.94,0-1.46.55-1.46,1.49v7.83c0,1.59-.91,2.68-2.43,2.68s-2.39-1.1-2.39-2.65v-7.86c0-.94-.55-1.49-1.49-1.49h-2.65c-.94,0-1.49.55-1.49,1.49v8.67c0,3.95,2.68,6.6,6.7,6.6,2.3,0,3.85-1.07,4.82-2.55v.65c0,.94.55,1.49,1.49,1.49h1.59c.94,0,1.46-.55,1.46-1.49v-13.36c0-.94-.52-1.49-1.46-1.49Z"/>
      <path class="cls-1" d="m151.95,8.02c-2.36,0-3.98,1.07-5.05,2.59v-.84c0-.94-.52-1.49-1.46-1.49h-1.71c-.94,0-1.46.55-1.46,1.49v13.36c0,.94.52,1.49,1.46,1.49h2.68c.94,0,1.46-.55,1.46-1.49v-7.63c0-1.62,1-2.72,2.62-2.72s2.55,1.1,2.55,2.72v7.63c0,.94.55,1.49,1.49,1.49h2.65c.94,0,1.49-.55,1.49-1.49v-8.05c0-4.3-2.78-7.05-6.73-7.05Z"/>
      <path class="cls-1" d="m172.58,15.72l5.63-6.18c.58-.71.13-1.26-.61-1.26h-2.39c-.81,0-1.23.42-1.88,1.2l-5.5,6.24V2.75c0-.84-.42-1.39-1.29-1.2l-1.75.32c-.81.19-1.23.52-1.23,1.26v20.22c0,.78.45,1.26,1.23,1.26h1.84c.78,0,1.2-.48,1.2-1.26v-3.72l1.55-1.68,4.04,5.47c.55.81,1.04,1.2,1.84,1.2h2.55c.74,0,1.2-.55.61-1.26l-5.85-7.63Z"/>
      <path class="cls-1" d="m192.34,21.25c-.29-.55-.65-.87-1.39-.42-.45.26-.94.48-1.49.48-1.26,0-2.13-.68-2.13-2.49v-7.31h3.59c.78,0,1.26-.45,1.26-1.23v-.81c0-.78-.48-1.2-1.26-1.2h-3.59V3.82c0-.84-.42-1.42-1.29-1.23l-1.75.36c-.81.16-1.23.52-1.23,1.26v4.08h-1.59c-.78,0-1.26.42-1.26,1.2v.81c0,.78.49,1.23,1.26,1.23h1.59v7.7c0,4.01,2.62,5.82,5.69,5.82,1.42,0,2.72-.39,3.62-1.04.42-.29.91-.71.55-1.39l-.58-1.36Z"/>
      <path class="cls-1" d="m198.31,0c-1.55,0-2.78,1.26-2.78,2.78s1.23,2.78,2.78,2.78,2.78-1.23,2.78-2.78-1.26-2.78-2.78-2.78Z"/>
      <path class="cls-1" d="m199.25,8.28h-1.88c-.78,0-1.23.45-1.23,1.23v13.84c0,.78.45,1.26,1.23,1.26h1.88c.78,0,1.2-.48,1.2-1.26v-13.84c0-.78-.42-1.23-1.2-1.23Z"/>
      <path class="cls-1" d="m213.54,8.02c-5.11,0-8.86,3.65-8.86,8.51s3.75,8.51,8.86,8.51,8.83-3.66,8.83-8.51-3.72-8.51-8.83-8.51Zm0,13.26c-2.68,0-4.59-2.01-4.59-4.75s1.94-4.79,4.59-4.79,4.56,2.04,4.56,4.79-1.91,4.75-4.56,4.75Z"/>
      <path class="cls-1" d="m235.43,8.02c-2.39,0-4.11,1.04-5.17,2.59v-1.1c0-.78-.45-1.23-1.23-1.23h-1.23c-.78,0-1.23.45-1.23,1.23v13.84c0,.78.45,1.26,1.23,1.26h1.88c.78,0,1.2-.48,1.2-1.26v-8.09c0-2.13,1.42-3.56,3.53-3.56s3.4,1.42,3.4,3.56v8.09c0,.78.45,1.26,1.23,1.26h1.88c.77,0,1.2-.48,1.2-1.26v-8.41c0-4.14-2.65-6.92-6.66-6.92Z"/>
      <path class="cls-1" d="m253.86,8.02c-2.01,0-4.11.52-5.98,1.78-.58.36-.84.94-.36,1.78l.29.52c.42.71.97.84,1.62.45,1.13-.78,2.59-1.26,4.14-1.26,2.23,0,3.59,1.16,3.59,3.04v.87c-1.26-.52-2.69-.87-4.21-.87-4.14,0-6.92,2.2-6.92,5.5,0,3.11,2.55,5.21,6.34,5.21,2.07,0,3.95-.87,5.34-2.23v.55c0,.78.45,1.26,1.23,1.26h1.03c.78,0,1.2-.45,1.2-1.26v-8.54c0-4.79-3.23-6.79-7.31-6.79Zm3.4,11.19c0,1.59-1.84,2.88-3.95,2.88-1.91,0-3.17-.97-3.17-2.43,0-1.55,1.36-2.59,3.4-2.59,1.49,0,2.91.55,3.72.94v1.2Z"/>
      <path class="cls-1" d="m269.35,1.52l-1.78.36c-.81.19-1.23.52-1.23,1.26v20.22c0,.78.45,1.26,1.23,1.26h1.88c.77,0,1.2-.48,1.2-1.26V2.75c0-.84-.42-1.42-1.29-1.23Z"/>
      <path class="cls-1" d="m298,3.59h-15.2c-.81,0-1.26.42-1.26,1.23v1.13c0,.81.45,1.26,1.26,1.26h5.43v16.11c0,.81.42,1.29,1.23,1.29h1.88c.81,0,1.26-.48,1.26-1.29V7.21h5.4c.81,0,1.29-.45,1.29-1.26v-1.13c0-.81-.49-1.23-1.29-1.23Z"/>
      <path class="cls-1" d="m311.12,8.31c-.65-.19-1.23-.29-2.04-.29-1.84,0-3.3.94-4.34,2.49v-1c0-.78-.45-1.23-1.23-1.23h-1.23c-.78,0-1.23.45-1.23,1.23v13.84c0,.78.45,1.26,1.23,1.26h1.88c.78,0,1.2-.48,1.2-1.26v-7.7c0-2.33,1.2-3.95,3.33-3.95.45,0,.97.1,1.42.26.55.16,1.07.06,1.29-.74l.42-1.62c.23-.87-.23-1.13-.71-1.29Z"/>
      <path class="cls-1" d="m321.18,8.02c-2,0-4.11.52-5.98,1.78-.58.36-.84.94-.36,1.78l.29.52c.42.71.97.84,1.62.45,1.13-.78,2.59-1.26,4.14-1.26,2.23,0,3.59,1.16,3.59,3.04v.87c-1.26-.52-2.68-.87-4.2-.87-4.14,0-6.92,2.2-6.92,5.5,0,3.11,2.56,5.21,6.34,5.21,2.07,0,3.95-.87,5.34-2.23v.55c0,.78.45,1.26,1.23,1.26h1.03c.78,0,1.2-.45,1.2-1.26v-8.54c0-4.79-3.23-6.79-7.31-6.79Zm3.4,11.19c0,1.59-1.84,2.88-3.95,2.88-1.91,0-3.17-.97-3.17-2.43,0-1.55,1.36-2.59,3.4-2.59,1.49,0,2.91.55,3.72.94v1.2Z"/>
      <path class="cls-1" d="m336.7,8.28h-1.88c-.78,0-1.23.45-1.23,1.23v13.84c0,.78.45,1.26,1.23,1.26h1.88c.78,0,1.2-.48,1.2-1.26v-13.84c0-.78-.42-1.23-1.2-1.23Z"/>
      <path class="cls-1" d="m335.76,0c-1.55,0-2.78,1.26-2.78,2.78s1.23,2.78,2.78,2.78,2.78-1.23,2.78-2.78-1.26-2.78-2.78-2.78Z"/>
      <path class="cls-1" d="m352.02,8.02c-2.39,0-4.11,1.04-5.18,2.59v-1.1c0-.78-.45-1.23-1.23-1.23h-1.23c-.78,0-1.23.45-1.23,1.23v13.84c0,.78.45,1.26,1.23,1.26h1.88c.78,0,1.2-.48,1.2-1.26v-8.09c0-2.13,1.42-3.56,3.52-3.56s3.4,1.42,3.4,3.56v8.09c0,.78.45,1.26,1.23,1.26h1.88c.78,0,1.2-.48,1.2-1.26v-8.41c0-4.14-2.65-6.92-6.66-6.92Z"/>
      <path class="cls-1" d="m366.86,8.28h-1.88c-.78,0-1.23.45-1.23,1.23v13.84c0,.78.45,1.26,1.23,1.26h1.88c.78,0,1.2-.48,1.2-1.26v-13.84c0-.78-.42-1.23-1.2-1.23Z"/>
      <path class="cls-1" d="m365.92,0c-1.55,0-2.78,1.26-2.78,2.78s1.23,2.78,2.78,2.78,2.78-1.23,2.78-2.78-1.26-2.78-2.78-2.78Z"/>
      <path class="cls-1" d="m382.19,8.02c-2.39,0-4.11,1.04-5.18,2.59v-1.1c0-.78-.45-1.23-1.23-1.23h-1.23c-.78,0-1.23.45-1.23,1.23v13.84c0,.78.45,1.26,1.23,1.26h1.88c.78,0,1.2-.48,1.2-1.26v-8.09c0-2.13,1.42-3.56,3.52-3.56s3.4,1.42,3.4,3.56v8.09c0,.78.45,1.26,1.23,1.26h1.88c.78,0,1.2-.48,1.2-1.26v-8.41c0-4.14-2.65-6.92-6.66-6.92Z"/>
      <path class="cls-1" d="m408.35,8.28h-1.13c-.78,0-1.23.45-1.23,1.23v.52c-1.33-1.23-3.14-2.01-5.27-2.01-4.46,0-7.8,3.27-7.8,7.63s3.33,7.6,7.76,7.6c1.91,0,3.59-.65,4.88-1.68v1.94c0,2.75-2.13,4.01-4.63,4.01-2.3,0-4.01-1-5.11-2.2-.65-.61-1.23-.48-1.68-.03l-.62.71c-.65.61-.52,1.2-.03,1.71,1.71,1.88,4.08,3.04,7.41,3.04,4.76,0,8.64-2.49,8.64-7.93v-13.33c0-.78-.42-1.23-1.2-1.23Zm-6.82,11.68c-2.59,0-4.34-1.81-4.34-4.3s1.78-4.33,4.3-4.33,4.34,1.81,4.34,4.33-1.75,4.3-4.3,4.3Z"/>
    </g>
  </g>
</svg>