<?xml version="1.0" encoding="UTF-8"?>
<svg id="Layer_2" data-name="Layer 2" xmlns="http://www.w3.org/2000/svg" viewBox="0 0 301.62 105.32">
  <defs>
    <style>
      .cls-1 {
        fill: #fff;
      }
    </style>
  </defs>
  <g id="Layer_1-2" data-name="Layer 1">
    <g>
      <path class="cls-1" d="m223.92,87.68c-.2,0-.38.24-.58.54-.26.4-.56.77-.68.92-1,1.31-2.3,2.44-3.53,3.53-.63.55-1.27,1.12-2.03,1.47-.22.1-.92.38-1.38.38-.25,0-.44-.08-.44-.33,0-.32.67-1.03.97-1.91.25-.75.41-1.59.55-2.37.16-.87.58-1.6.71-2.47.07-.47.11-.94.11-1.41,0-.32-.02-.64-.06-.97-.12-.83-.62-1.61-1.17-2.31-.48-.61-.98-1.17-1.67-1.45-.92-.37-1.97-.38-2.94-.38-.81,0-1.53.27-2.26.66-.36.19-.92.41-1.39.7-.38.23-.71.5-.83.85-.12.31-.1.53-.31.63-.17.08-.45.05-.63.16-.12.08-.19.2-.3.27-.26.19-.57.23-.83.46-.25.22-.43.49-.7.69-.19.14-.68.28-.68.59,0,.21.23.21.23.36,0,.18-.33.16-.52.39-.09.11-.04.24-.11.36-.15.26-.42.47-.6.71-.35.48-.59.38-.92.87-.23.35-.31.72-.61,1.04-.21.22-.48.37-.72.55-.56.41-.29.9-.62,1.44-.18.29-.49.42-.65.72-.02.05-.03.1-.05.16-1.24,1.36-2.53,2.68-3.83,3.96-.76.75-2.16,2.45-3.22,2.45-.67,0-.89-.48-.89-1.08,0-.85.42-1.97.6-2.42.53-1.35,1.09-2.73,1.8-4,.7-1.27,1.59-2.38,2.42-3.56,1.71-2.45,3.82-4.59,5.63-6.98,1.9-2.52,3.69-5.22,5.4-7.88.7-1.09.91-2.45,1.74-3.46.44-.53.94-.93,1.21-1.59.28-.68.3-1.43.3-1.63,0-1.79-.75-3.53-1.87-3.53s-2.1.82-2.83,1.67c-.25.29-.43.55-.79.71-.27.12-.64.19-.89.34-.39.23-.57.85-.86,1.21-.36.47-.21.97-.56,1.47-.37.54-.89,1.02-1.25,1.57-.81,1.22-1.6,2.41-2.29,3.71-.38.71-.72,1.44-1.15,2.12-.35.55-.86.93-1.21,1.47-.39.6-.58,1.41-.97,2.06-.36.59-.72,1.16-1.05,1.76-.35.61-.79,1.04-1.23,1.58-.23.29-.59,1.14-.98,1.14-.29,0-.49-.32-.69-.52-.22-.22-.52-.37-.78-.53-.68-.42-1.31-.57-2.2-.57-.68,0-1.33.1-2.05.1-.2,0-.4.02-.51.14-.19.21-.14.63-.5.63-.29,0-.59-.26-.81-.26s-.43.09-.68.27c-.34.24-1,.43-1.25.73-.16.2-.13.48-.27.69-.14.2-.37.33-.57.46-.6.38-1.12.61-1.59,1.15-.49.57-1.11,1.07-1.56,1.67-.39.51-.7,1.08-1.07,1.61-.45.64-.89,1.34-1.42,1.92-.39.43-.79.73-1.02,1.3-.02.06-.04.12-.06.18-.97,1.09-1.96,2.16-3,3.19-1.01,1-2,2.01-3.26,2.69-.35.19-1.07.63-1.6.63-.34,0-.55-.18-.55-.53,0-.34.18-.75.27-.98.39-1.02.97-1.78,1.54-2.71.41-.67.57-1.37.99-2.06.45-.76,1.14-1.53,1.56-2.27.68-1.2,1.5-2.31,2.19-3.51.35-.6.79-1.13.79-1.87,0-.48-.16-.94-.47-1.32-.49-.61-1.7-1.62-2.55-1.62-.16,0-.31.03-.45.09-.3.13-.52.38-.82.51-.28.12-.59.17-.87.27-.6.2-1.05.6-1.54.97-1.09.83-2.09,1.8-3.12,2.71-1.07.94-2.05,1.92-2.98,3-.48.56-.95,1.13-1.45,1.66-.13.14-.64.69-.92.69-.1,0-.18-.07-.18-.24,0-.51.63-1.31.86-1.71.34-.59.7-1.17,1.05-1.74.7-1.12,1.63-2.32,1.99-3.61.06-.22.09-.42.09-.62,0-.99-.76-1.61-1.62-2.22-.34-.24-.69-.4-1.04-.4-.24,0-.48.08-.73.26-.45.34-.56.67-.84,1.13-.18.3-.21.36-.47.44-.28.09-.43.14-.63.45-.28.42-.17,1.04-.44,1.53-.28.53-.66,1.09-1.03,1.56-.13.17-.45.44-.45.68,0,.1.02.14.04.19-.11.14-.23.32-.36.53-.12.06-.23.12-.29.19-.16.18-.2.37-.26.58-.23.3-.47.59-.71.87-.67.77-1.39,1.5-2.06,2.26-1.39,1.57-2.79,3.13-4.41,4.48-.64.54-1.68,1.77-2.5,1.77-.47,0-.71-.66-.71-1.17,0-.12.02-.24.05-.33.57-1.8,1.87-3.41,2.99-4.88.64-.84,1.22-1.69,1.68-2.64.41-.84,1.03-1.82,1.03-2.71s-.75-1.51-1.41-2.07c-.66-.55-1.3-1.15-2.03-1.61-.47-.3-.97-.57-1.42-.89-.34-.24-.6-.64-.94-.86-.16-.1-.29-.14-.42-.14-.19,0-.37.08-.63.13-.15.03-.3.04-.45.05-.26.01-.53,0-.8.04-.43.05-1.19.27-1.58.51-.1.06-.26.17-.26.31s.19.12.19.27c0,.22-.19.29-.42.29-.32,0-.73-.19-1-.19s-.35.35-.59.52c-.18.14-.45.15-.61.29-.25.22-.34.6-.61.84-.7.61-1.57,1.02-2.23,1.71-.62.65-1.19,1.24-1.75,1.95-.59.74-1.36,1.43-1.86,2.23-.22.36-.08.89-.34.89-.15,0-.17-.16-.31-.16-.12,0-.25.14-.35.25-.26.29-.49.95-.67,1.34-.08.18-.18.36-.26.54-.62.66-1.24,1.32-1.86,1.99-.93.99-1.87,1.95-2.96,2.76-1.04.77-2.08,1.68-3.29,2.18-.32.13-.71.28-1.09.28-.84,0-1.35-1.02-1.35-2.03,0-.43.08-.86.14-1.29.08-.53.08-1.05.24-1.56.17-.56.35-1.04.82-1.4.48-.37,1.07-.62,1.57-.96,1.15-.79,2.17-1.72,3.2-2.64,1.04-.93,2.13-1.83,3.11-2.82.94-.96,1.77-2.04,2.62-3.07,1.72-2.09,3.42-4.15,4.94-6.4.75-1.11,1.64-2.12,2.35-3.26.73-1.17,1.38-2.38,1.92-3.64.58-1.36,1.25-3.14,1.25-4.79,0-.87-.31-1.58-.8-2.3-.65-.96-1.7-1.47-2.83-1.47-1.43,0-2.42.8-3.54,1.55-.19.13-1.01.77-1.21.93-.83.68-.96,1.11-1.23,1.26-.23.13-.41.32-.63.48-.47.35-.96.39-1.36.87-.46.55-.8,1.18-1.26,1.74-.43.52-.9,1.02-1.36,1.52-.49.54-.97,1.05-1.42,1.63-.35.45-.72.86-.91,1.38-.08.22-.19.29-.18.45,0,.13.2.19.2.38,0,.15-.06.28-.38.53-.1.08-.21.23-.34.23-.12,0-.21-.07-.32-.07-.12,0-.31.24-.35.32-.14.23-.18.59-.33.81-.12.18-.34.26-.49.41-.34.31-.56.82-.86,1.22-.41.56-.5,1.35-.8,1.92-.36.69-.89,1.24-1.13,1.99-.19.58-.4,1.12-.74,1.63-.32.49-.57.96-.76,1.48-.48,1.33-1.17,2.49-1.71,3.79-.26.62-.51,1.22-.78,1.83-.12.26-.18.55-.24.84-.36.33-.72.65-1.08.96-.63.55-1.27,1.12-2.03,1.47-.22.1-.92.38-1.38.38-.25,0-.44-.08-.44-.33,0-.32.67-1.03.97-1.91.25-.75.41-1.59.55-2.37.16-.87.58-1.6.71-2.47.07-.47.11-.94.11-1.41,0-.32-.02-.64-.06-.97-.12-.83-.62-1.61-1.17-2.31-.49-.61-.98-1.17-1.67-1.45-.92-.37-1.97-.38-2.94-.38-.81,0-1.53.27-2.26.66-.36.19-.92.41-1.39.7-.38.23-.71.5-.83.85-.12.31-.1.53-.31.63-.17.08-.45.05-.63.16-.12.08-.19.2-.3.27-.26.19-.57.23-.83.46-.25.22-.43.49-.7.69-.19.14-.68.28-.68.59,0,.21.23.21.23.36,0,.18-.33.16-.52.39-.09.11-.04.24-.11.36-.15.26-.42.47-.6.71-.35.48-.59.38-.92.87-.23.35-.3.72-.6,1.04-.21.22-.48.37-.72.55-.56.41-.29.9-.62,1.44-.18.29-.49.42-.65.72-.02.04-.03.09-.05.13-.13.12-.25.25-.38.34-.86.64-1.57,1.09-2.65,1.09-.53,0-1.34-.43-1.34-1.01,0-.45.37-.33.56-.89.08-.24.26-.38.56-.69.45-.46.76-.99,1.07-1.54.81-1.45,1.83-2.99,1.83-4.61,0-.24,0-.47,0-.73,0-.51.08-1.03-.11-1.5-.23-.58-.83-.86-1.47-.86-.36,0-.74.09-1.07.26-2.08,1.05-3.59,3.76-4.42,5.76-.26.62-.46,1.26-.63,1.9-.13.49-.17,1.15-.42,1.6-.11.2-.43.67-.62.79-.14.08-.31.05-.48.18-.18.13-.33.36-.47.53-.25.32-.66.63-.86.97-.22.37-.26.71-.53,1.09-.2.29-.46,1.03-.73,1.03-.1,0-.26-.03-.34.04-.15.12-.12.29-.27.46-.17.19-.52.27-.52.54,0,.11.07.26.07.37,0,.08-.04.14-.17.14-.17,0-.12-.37-.34-.37-.18,0-.23.21-.44.34-.17.11-.31.18-.47.3-.33.23-1.07.45-1.07.78,0,.05.05.07.09.07.21,0,.47-.34.64-.35.04,0,.06.03.06.07,0,.07-.06.2-.14.27-.23.21-.5.34-.77.48-.24.13-.77.38-1.11.38-.18,0-.41-.11-.41-.51,0-.28.2-.86.33-1.16.27-.62.34-1.06.47-1.49.2-.61.26-.97.67-1.52.41-.56.65-1.25.99-1.86.33-.57.63-1.14.94-1.72.53-1,1.14-2.03,1.81-2.96.41-.57.65-1.17.96-1.78.22-.44.44-.44.7-.8.17-.23.15-.46.24-.68.09-.21.31-.34.41-.54.1-.19.14-.42.14-.64,0-.72-.47-.81-1.27-1.55-.48-.44-.95-.68-1.38-.68-.9,0-1.61.6-2.1,1.26-.15.2-.28.43-.46.62-.07.08-.22.14-.36.34-.15.21-.13.69-.36.85-.22.15-.36.15-.58.26-.23.12-.5.57-.69.9-.24.41-.53.55-.82.89-.24.27-.41.58-.41.97,0,.15.02.31.02.42,0,.5-.66.88-.91,1.36-.1.19-.08.5-.11.73-.03.22-.1.29-.37.29-.07,0-.16.01-.25.06-.18.1-.39.31-.39.48,0,.15.08.15.08.42,0,.41-.34.73-.34.95,0,.14.06.21.07.31.02.11,0,.19.1.19.06,0,.12-.02.2-.02.04,0,.06.03.06.07,0,.13-.06.31-.12.45-.04.09-.12.29-.25.29-.09,0-.1-.09-.1-.21,0-.17.03-.38-.11-.38-.13,0-.31.14-.31.28,0,.26.39.48.39.69,0,.04-.03.06-.07.06-.15,0-.24-.18-.41-.18-.04,0-.09.01-.15.04-.28.12-.49.58-.62.83-.19.36-.28.73-.44,1.1-.1.23-.23.57-.23.85,0,.09.04.16.1.16.24,0,.42-1.34.64-1.34.11,0,.13.18.13.24,0,.17-.15.2-.23.34-.05.09-.14.41-.14.58,0,.14-.01.26-.05.41-.2.75-.77,1.48-.82,2.27-.02.33-.04.65-.04.96,0,.69.1,1.32.54,1.87.28.35.36.92.72,1.2.14.11.36.04.48.15.12.11.15.2.23.44.26.76,1.29.91,2.06.91h0c1.24,0,2.94-.66,3.81-1.28,2.27-1.61,4.04-3.49,5.76-5.66.41-.52.95-1.21,1.28-1.53.11-.1.19-.14.27-.14.15,0,.36.24.6.41,1.04.7,1.94.83,2.86.83.83,0,1.63-.15,2.39-.4.03.09.07.19.07.28,0,.28-.13.48-.13.79,0,.51.28,1.07.28,1.58,0,.25-.16.43-.16.65,0,.19.11.34.16.5.25.71.59,1.41,1.04,2.02,1.06,1.4,2.68,2.09,4.42,2.09,2.05,0,3.78-.78,5.36-1.96,1.6-1.2,2.68-2.87,3.86-4.46.22-.3.56-.72.86-.72s.6.14.97.14c1,0,2.03-.17,2.98-.5.63-.22,1.2-.51,1.75-.84-.02.33-.06.65-.06.98,0,.65.05,1.31.19,1.96.53,2.51,2.46,5.01,4.71,5.01,1.33,0,2.43-.4,3.57-1.09,1.9-1.15,3.6-2.59,5.17-4.16.08.93.3,1.98.76,2.87.58,1.1,1.54,1.94,3.06,1.94.64,0,1.28-.15,1.9-.4.46-.18,1.04-.35,1.38-.73.28-.31.44-.74.72-1.07.75-.86,1.44-1.72,2.28-2.52.34-.33,1.02-1.61,1.65-1.63.62-.02.56,1.13.62,1.64.05.48.14.87.33,1.32.38.91.71,1.76,1.67,2.18.42.19.85.27,1.28.27,1.48,0,2.97-.95,4.08-1.82.44-.34.87-.71,1.28-1.09-.04.27-.07.55-.07.83,0,.21,0,.4.02.57.06.73.26,1.23.8,1.72.35.32.83.79,1.26.99.14.07.27.09.41.09h0c.45,0,.9-.37,1.29-.8.44-.49.8-1.08,1.04-1.4,1.72-2.32,3.76-4.38,5.73-6.49.98-1.05,1.93-2.12,2.94-3.13.54-.54,1.07-1.15,1.7-1.59.16-.11.28-.16.36-.16.12,0,.17.09.17.23,0,.15-.06.35-.15.53-.26.5-.79,1.18-.79,1.78,0,.31.24.54.24.85,0,.32-.14.66-.3.88-.35.47-.75.47-.75.98,0,.26.11.56.11.71,0,.31-.25.57-.38.57-.18,0-.13-.43-.35-.43-.05,0-.17.05-.27.19-.14.19-.28.88-.28,1.31,0,.47.09.94.28,1.36.29.64.64,1.16.81,1.86.15.6.61,1.05,1.09,1.42.66.5,1.38.7,2.12.7,1.77,0,3.63-1.15,5.01-2.11.88-.61,1.67-1.32,2.43-2.07.17,1.33.58,2.84,1.57,3.8.64.62,1.43.89,2.25.89.54,0,1.08-.12,1.61-.32.67-.26,1.34-.65,1.9-1.1.54-.43.77-.93,1.19-1.44.38-.45.93-.64,1.3-1.11.4-.49.69-1.01,1.12-1.48.2-.22,1-1.17,1.53-1.77.27-.3.49-.5.67-.5.28,0,.3.45.3.63,0,.4-.08.81-.08,1.17,0,.72.34,1.77.49,2.19.23.66.69,1.28,1.14,1.81.72.84,1.61,1.3,2.67,1.3,2.44,0,4.53-2.14,6.09-3.85.24-.26.48-.53.71-.79.04.18.08.36.08.53,0,.25-.16.43-.16.65,0,.19.11.34.16.5.25.71.59,1.41,1.04,2.02,1.06,1.4,2.68,2.09,4.42,2.09,2.05,0,3.78-.78,5.36-1.96,1.6-1.2,2.68-2.87,3.86-4.46.22-.3.56-.72.86-.72s.6.14.97.14c1,0,2.03-.17,2.98-.5,1.91-.65,3.39-1.87,4.75-3.33.96-1.03,1.68-2.07,2.08-3.33.24-.75.37-1.57.37-2.52,0-.48-.1-.98-.46-.98Zm-101.04-1.48c.87-1.46,1.53-3.09,2.51-4.48.53-.75,1.16-1.4,1.63-2.19.35-.58.51-1.35.98-1.83.34-.34.63-.55.88-.98.21-.35.41-.61.67-.93.53-.66.93-1.41,1.48-2.06.55-.65,1.24-1.08,1.85-1.67.59-.57,1.01-1.29,1.49-1.95.23-.32,1.77-2.18,2.54-2.18.23,0,.42.14.42.52,0,.91-.75,1.79-1.2,2.53-.53.87-1.09,1.71-1.69,2.54-1.16,1.6-2.32,3.19-3.4,4.85-.95,1.47-2.09,2.76-3.15,4.15-1.09,1.42-2.15,2.74-3.49,3.94-.26.23-1.53,1.86-2.06,1.86-.13,0-.2-.08-.2-.29,0-.45.63-1.62.75-1.82Zm-20.43,11.77c-.64.76-1.25,1.34-2.09,1.87-.36.23-.54.5-.85.77-.35.31-.92.35-1.2.35-.49,0-.72-.43-.72-1.31,0-1,.43-2.76.95-3.57.56-.87,1.08-1.77,1.64-2.64.17-.26.74-.97,1.1-.97.38,0,.48.51.59.81.17.5.3.95.64,1.37.29.36.71.62.97,1,.14.19.19.38.19.56,0,.67-.78,1.25-1.22,1.77Zm5.98-10.83c-.4,1.49-.89,2.79-1.6,4.15-.18.34-.37,1.18-.82,1.18-.7,0-.8-1.2-.8-2.06,0-1.25.43-3.02,1.31-3.94.33-.34.94-.8,1.48-.8.49,0,.68.29.68.59s-.18.63-.25.89Zm34.67,1.71c-.26.66-.61.82-1.1,1.35-.96,1.04-1.63,2.34-2.6,3.37-.42.45-.98.68-1.39,1.11-.39.41-.68.92-1.06,1.33-.88.96-1.99,1.97-3.1,2.67-.26.16-.63.34-.87.34-.15,0-.25-.06-.25-.24,0-.09.02-.23.1-.39.22-.46.4-.93.53-1.5.14-.59.39-1.14.7-1.67.42-.71.93-1.37,1.4-2,.82-1.12,1.72-2.23,2.62-3.29.86-1,1.98-1.77,3.02-2.56.74-.57,2-1.41,2.97-1.41.73,0,1.17.62,1.17,1.04,0,.38-.72.63-1.13.72-.56.12-.85.72-1.01,1.13Zm46.53-.26c-.92,1.14-1.91,2.23-2.89,3.32-.88.98-1.74,1.97-2.67,2.9-.92.93-1.93,1.7-2.88,2.58-.42.39-.52.96-.93,1.34-.31.29-.87.86-1.31.86-.27,0-.44-.14-.44-.53,0-.71.43-1.9.55-2.2.94-2.39,2.65-4.47,4.34-6.37.89-1.01,1.81-2.06,2.83-2.86,1.05-.83,2.22-1.4,3.34-1.4.47,0,1.09.06,1.11.67.01.56-.72,1.28-1.04,1.68Zm17.64,9.38c-.64.76-1.25,1.34-2.09,1.87-.36.23-.54.5-.85.77-.35.31-.92.35-1.19.35-.49,0-.72-.43-.72-1.31,0-1,.44-2.76.95-3.57.56-.87,1.08-1.77,1.64-2.64.17-.26.74-.97,1.1-.97.38,0,.48.51.59.81.17.5.3.95.64,1.37.29.36.71.62.98,1,.13.19.19.38.19.56,0,.67-.78,1.25-1.22,1.77Zm5.98-10.83c-.4,1.49-.89,2.79-1.6,4.15-.18.34-.37,1.18-.82,1.18-.7,0-.8-1.2-.8-2.06,0-1.25.43-3.02,1.32-3.94.33-.34.94-.8,1.48-.8.49,0,.68.29.68.59s-.18.63-.25.89Z"/>
      <polygon class="cls-1" points="98.34 105.32 98.34 105.32 98.34 105.32 98.34 105.32"/>
      <path class="cls-1" d="m236.22,61.93c-.38-.18-.56-.28-.8-.62-.13-.2-.22-.36-.44-.47-.45-.23-1.15-.32-1.82-.32-.57,0-.99.42-1.13,1.05-.09.42-.06.67-.28,1.06-.18.33-.29.53-.32.91-.03.42,0,.62-.27.95-.2.26-.43.47-.6.75-.23.37-.19.63-.32,1.01-.11.33-.31.56-.54.77-.45.41-.62,1.02-.9,1.55-.32.6-.45.78-.91,1.28-.35.37-1.15,1.82-1.61,2.31-.4.41-.73.36-.74.83-.03.91,1.86,1.66,2.93,1.66,1.42,0,2.11-1.05,3.12-2.04.47-.47.84-.91,1.24-1.45.44-.61.95-1.17,1.39-1.77.44-.6.7-1.34.99-2.02.29-.67.58-1.34.77-2.05.18-.65.28-1.35.5-1.98.12-.36.27-.62.27-.83,0-.2-.13-.37-.52-.56Z"/>
      <polygon class="cls-1" points="118.94 104.95 118.94 104.95 118.94 104.95 118.94 104.95"/>
      <polygon class="cls-1" points="203.17 105.32 203.17 105.32 203.17 105.32 203.17 105.32"/>
      <path class="cls-1" d="m301.38,26.56c-.33,0-.61.7-1.16,1.44-.27.36-.56.7-.85,1.04-.67.76-1.39,1.49-2.06,2.26-1.39,1.57-2.8,3.13-4.41,4.48-.64.54-1.68,1.77-2.5,1.77-.47,0-.71-.66-.71-1.17,0-.12.01-.24.04-.33.57-1.8,1.87-3.41,2.99-4.88.63-.84,1.22-1.69,1.68-2.64.41-.84,1.03-1.82,1.03-2.71s-.75-1.51-1.41-2.07c-.66-.55-1.3-1.15-2.03-1.61-.47-.3-.97-.57-1.42-.89-.34-.24-.6-.64-.94-.86-.16-.1-.29-.14-.42-.14-.19,0-.37.08-.63.13-.15.03-.3.04-.45.05-.27.01-.53,0-.8.04-.43.05-1.18.27-1.58.51-.1.06-.26.17-.26.31s.19.11.19.27c0,.22-.19.29-.42.29-.32,0-.73-.19-1-.19s-.35.35-.59.52c-.18.14-.45.15-.61.29-.25.22-.34.6-.61.84-.7.61-1.57,1.02-2.23,1.71-.62.65-1.19,1.25-1.75,1.95-.59.74-1.36,1.43-1.86,2.23-.12.18-.14.41-.16.6-.08.09-.15.18-.23.27-.09-.04-.14-.13-.25-.13s-.25.14-.35.25c-.26.29-.49.95-.66,1.35,0,0,0,0,0,.01-1,1.12-2.01,2.22-3.08,3.28-1.01,1-2,2.01-3.26,2.69-.35.19-1.07.63-1.6.63-.34,0-.55-.18-.55-.53,0-.34.18-.75.26-.98.39-1.02.97-1.78,1.54-2.71.41-.67.57-1.36.99-2.06.45-.76,1.14-1.53,1.56-2.27.68-1.2,1.5-2.31,2.19-3.51.35-.6.79-1.13.79-1.87,0-.48-.16-.94-.46-1.32-.49-.61-1.7-1.62-2.55-1.62-.16,0-.31.03-.45.09-.3.13-.52.38-.83.51-.28.12-.58.17-.87.27-.6.2-1.05.6-1.54.98-1.09.83-2.09,1.8-3.12,2.71-1.07.93-2.05,1.92-2.98,3-.48.56-.95,1.13-1.45,1.67-.13.14-.64.69-.92.69-.1,0-.18-.07-.18-.24,0-.51.63-1.31.86-1.71.34-.59.7-1.17,1.06-1.74.7-1.13,1.63-2.32,1.99-3.61.06-.22.09-.42.09-.62,0-.99-.76-1.61-1.62-2.22-.34-.24-.69-.4-1.04-.4-.24,0-.48.08-.73.26-.45.34-.56.67-.84,1.13-.18.3-.21.36-.47.44-.28.09-.43.14-.64.45-.28.42-.17,1.04-.44,1.53-.28.53-.66,1.09-1.03,1.56-.13.17-.45.44-.45.68,0,.17.07.17.07.33,0,.29-.52.4-.69.58-.18.2-.2.41-.28.65-.02.03-.05.06-.07.09-.3.33-.72.78-1.03,1.1-.67.7-1.38,1.37-2.08,2.04-.71.68-1.36,1.43-2.08,2.1-.78.72-1.65,1.37-2.49,2.02-1.49,1.16-3.16,2.17-4.93,2.98-.86.4-1.79,1.1-3.35,1.1-.74,0-1.19-.15-1.53-.77-.14-.25-.34-.88-.34-1.2,0-.68.2-1.43.39-1.97.23-.64.87-1.89,1.51-1.89.38,0,.82.44,1.2.62.4.19.85.35,1.29.35.96,0,1.87-.46,2.72-.87,1.76-.84,3.6-1.72,4.8-3.31,1.11-1.47,2.21-3.6,2.21-5.45,0-.96-.72-2.67-.85-2.86-.62-.91-1.48-1.45-2.56-1.67-.41-.08-.84-.2-1.26-.2-.67,0-1.34.2-1.93.57-.37.23-.75.46-1.19.54-.43.08-.91.02-1.31.24-.33.18-.63.57-.95.8-.38.28-.48.63-.79.98-.35.4-.87.64-1.22.96-.39.36-.74.72-1.06,1.14-.67.86-1.47,1.63-2.05,2.56-.58.92-1.11,1.87-1.74,2.76-.3.42-.54.85-.75,1.29-1.5,1.6-3.04,3.19-4.77,4.54-.42.32-3.51,2.79-4.69,2.79-.28,0-.45-.14-.45-.48,0-.49.45-1.14.66-1.53.29-.53.6-1.03.93-1.53.64-1,1.32-1.97,2.05-2.9,1.41-1.77,3.27-3.19,4.5-5.1.44-.68.84-1.46.84-2.28,0-1.35-1.21-2.36-1.94-3.41-.44-.63-.86-1.56-1.66-1.56-.69,0-.98.53-1.64.53-.2,0-.41-.04-.59,0-.26.07-.43.27-.64.36-.46.19-.7.05-1.16.16-.5.11-1.07.44-1.41.44-.62,0-1.17-.56-1.6-.94-.13-.11-.19-.23-.4-.36-.12-.07-.31-.04-.47-.08-.23-.06-.23-.13-.41-.13-.09,0-.2.05-.35.16-.17.13-.24.37-.37.54-.1.13-.36.31-.43.45-.09.18-.11.38-.11.59,0,.36.08.73.08,1.04,0,.47-.07.87-.28,1.32-.13.26-.31.41-.31.73,0,.15.05.33.05.48,0,.55-.44.79-.78,1.3-.28.42-.4.92-.68,1.34-.63.95-1.4,1.83-2.12,2.72-.43.54-.95,1.03-1.09,1.62-.02.02-.04.04-.05.06-.99.95-2.08,1.79-3.07,2.75-1.04,1-2.17,1.91-3.47,2.54-.26.13-.66.31-1,.31-.4,0-.64-.28-.63-.65,0-.42.29-.93.44-1.23.35-.71.78-1.37,1.2-2.04.4-.64.5-1.31.85-1.97.59-1.14,1.42-2.07,2.16-3.1.9-1.25,1.5-2.64,2.33-3.93.77-1.2,1.69-2.3,2.41-3.53.61-1.05,1.1-2.64,2.32-3.07.33-.12.5-.2.5-.31,0-.12-.14-.16-.14-.28,0-.1.19-.14.33-.14.34,0,.42.12.71.12s.57-.1.84-.18c.15-.04.42-.12.74-.12.39,0,.92-.1,1.24-.1.34,0,.61.08.91.08s.64-.05.98-.09c.77-.09,1.5-.15,2.23-.42.59-.21,1.22-.27,1.8-.5.37-.15.5-.48.5-.77,0-.25-.11-.45-.25-.73-.22-.43-.29-1.09-.65-1.42-.52-.47-1.82-.57-2.34-.57s-1.08,0-1.44.06c-.5.09-.93.18-1.43.18-.36,0-.84-.13-.84-.4,0-.23.28-.52.45-.78.4-.61.78-1.24,1.23-1.81.52-.66,1.03-1.25,1.03-2.24,0-1.08-.74-1.9-1.71-2.42-.39-.21-.94-.56-1.43-.56-.67,0-.81.74-1.15,1.22-.22.31-.45.54-.58.91-.09.24-.14.49-.28.72-.3.51-.75,1.01-1.11,1.49-.76,1.03-1.66,1.92-2.4,2.97-.34.49-.6,1.01-1.22,1.18-.57.17-1.86.11-2.45.19-1.46.18-2.29.38-3.75.6-.79.12-1.61.19-2.39.35-.29.06-.38.19-.38.37,0,.22.15.5.25.78.2.56.35,1.32.9,1.65.56.33,1.33.2,1.87.56.33.22.49.31.9.37.22.03.32.08.56.08.33,0,.49-.09.72-.09.2,0,.43.03.43.4,0,.58-.7,1.35-1.03,1.84-.37.54-.72,1.08-1.11,1.6-.32.43-.44.93-.75,1.35-.14.19-.35.3-.49.49-.12.18-.15.41-.26.6-.19.34-2.12,2.32-2.12,2.84,0,.08.03.12.12.12s.16-.06.24-.09c-.02.03-.04.05-.07.08-1.84,2.19-3.72,4.37-5.75,6.39-1.01,1-2,2.01-3.26,2.69-.35.19-1.07.63-1.6.63-.34,0-.55-.18-.55-.53,0-.34.18-.75.26-.98.39-1.02.97-1.78,1.54-2.71.41-.67.57-1.36.99-2.06.45-.76,1.14-1.53,1.56-2.27.68-1.2,1.5-2.31,2.19-3.51.35-.6.79-1.13.79-1.87,0-.48-.16-.94-.47-1.32-.49-.61-1.69-1.62-2.55-1.62-.16,0-.31.03-.45.09-.3.13-.52.38-.83.51-.28.12-.59.17-.87.27-.6.2-1.05.6-1.54.98-1.09.83-2.09,1.8-3.12,2.71-1.07.93-2.05,1.92-2.98,3-.48.56-.95,1.13-1.45,1.67-.13.14-.64.69-.92.69-.1,0-.18-.07-.18-.24,0-.51.63-1.31.86-1.71.34-.59.7-1.17,1.06-1.74.7-1.13,1.63-2.32,1.99-3.61.06-.22.09-.42.09-.62,0-.99-.76-1.61-1.62-2.22-.34-.24-.69-.4-1.04-.4-.24,0-.48.08-.73.26-.45.34-.56.67-.84,1.13-.18.3-.21.36-.47.44-.28.09-.43.14-.64.45-.28.42-.17,1.04-.44,1.53-.28.53-.66,1.09-1.03,1.56-.13.17-.45.44-.45.68,0,.17.07.17.07.33,0,.29-.52.4-.69.58-.18.2-.2.41-.28.65-.02.03-.05.07-.07.09-.3.33-.72.78-1.02,1.1-.67.7-1.38,1.37-2.08,2.04-.71.68-1.36,1.43-2.08,2.1-.78.72-1.65,1.37-2.49,2.02-1.5,1.16-3.16,2.17-4.93,2.98-.86.4-1.79,1.1-3.35,1.1-.74,0-1.19-.15-1.53-.77-.14-.25-.34-.88-.34-1.2,0-.68.2-1.43.39-1.97.23-.64.87-1.89,1.51-1.89.38,0,.82.44,1.2.62.4.19.84.35,1.29.35.96,0,1.87-.46,2.72-.87,1.76-.84,3.6-1.72,4.8-3.31,1.11-1.47,2.21-3.6,2.21-5.45,0-.96-.72-2.67-.85-2.86-.62-.91-1.48-1.45-2.56-1.67-.41-.08-.84-.2-1.26-.2-.67,0-1.34.2-1.93.57-.37.23-.75.46-1.19.54-.43.08-.91.02-1.31.24-.34.18-.63.57-.95.8-.38.28-.48.63-.79.98-.35.4-.87.64-1.22.96-.39.36-.74.72-1.07,1.14-.67.86-1.47,1.63-2.05,2.56-.58.92-1.11,1.87-1.74,2.76-1.09,1.54-1.51,3.23-1.95,5.04-.03.13-.05.25-.05.37,0,.3.11.74.11,1.22,0,.32-.12.62-.12.93,0,.34.16.45.38.72.16.2.16.38.2.63.06.36.03.82.23,1.14.22.35.65.31.84.66.19.33.18.66.45.98.55.64,1.33.98,2.13,1.19.71.19,1.44.28,2.17.28,1.23,0,2.45-.26,3.59-.75,1.82-.78,3.56-1.79,5.1-3.04.59-.48,1.18-.99,1.77-1.5-.09.1-.2.19-.25.32-.15.35-.2.87-.2,1.34,0,.21,0,.4.02.57.06.73.26,1.23.8,1.72.35.32.83.79,1.26.99.14.07.27.09.41.09h0c.45,0,.9-.37,1.29-.8.44-.49.8-1.08,1.04-1.4,1.72-2.32,3.76-4.39,5.73-6.49.98-1.05,1.93-2.12,2.94-3.13.54-.54,1.07-1.15,1.7-1.59.16-.11.28-.16.36-.16.12,0,.17.09.17.23,0,.15-.06.35-.15.53-.26.5-.79,1.18-.79,1.78,0,.31.24.54.24.85,0,.32-.14.66-.3.88-.35.47-.75.47-.75.99,0,.26.11.56.11.7,0,.31-.25.57-.38.57-.18,0-.13-.43-.35-.43-.05,0-.17.05-.27.19-.14.19-.28.88-.28,1.31,0,.47.09.94.28,1.36.29.65.64,1.16.81,1.86.15.6.61,1.05,1.09,1.42.66.5,1.38.7,2.12.7,1.77,0,3.63-1.15,5.01-2.11,1.13-.78,2.13-1.71,3.07-2.69-.03.17-.06.35-.06.51,0,.48.07.87.11,1.37.06.76.36,1.1.82,1.71.86,1.14,2.15,1.66,3.17,1.66h0c1.47,0,2.71-.51,3.89-1.26,2.53-1.61,4.74-3.81,6.78-5.98,1.02-1.09,1.98-2.23,2.93-3.39.47-.58.93-1.15,1.26-1.83.14-.29.2-.58.24-.86.3-.41.6-.83.88-1.25.29-.43.79-1.15,1.1-1.55.31-.39.45-.44,1.01-.51.28-.04.77-.12,1.24-.12.28,0,.4.08.57.12.21.05.39.07.39.21,0,.11-.16.27-.32.43-.29.31-.25.58-.56.91-.37.41-.87.67-1.25,1.08-.76.82-1.39,1.79-2.04,2.69-.27.38-.49.57-.49.78,0,.31.19.31.19.58,0,.38-.31.64-.53.94-.31.41-.65.58-.94,1.01-.31.45-.76.85-.96,1.35-.13.31-.16.74-.16,1.18,0,.52.05,1.06.05,1.48,0,1.25.2,2.2.88,3,.79.92,1.91,1.46,3.05,1.45h0c1.55,0,2.93-.34,4.29-1.08.74-.41,1.65-1.15,2.34-1.69,1.19-.94,2.33-2.02,3.39-3.11-.01.09-.04.18-.04.26,0,.34.16.45.38.72.16.2.16.38.2.63.06.36.03.82.23,1.14.22.35.65.31.84.66.19.33.18.66.45.98.55.64,1.33.98,2.13,1.19.72.19,1.44.28,2.17.28,1.23,0,2.45-.26,3.59-.75,1.82-.78,3.56-1.79,5.1-3.04.59-.48,1.18-.99,1.77-1.5-.09.1-.2.19-.25.32-.15.35-.2.87-.2,1.34,0,.21,0,.4.02.57.06.73.26,1.23.8,1.72.35.32.83.79,1.26.99.14.07.27.09.41.09h0c.46,0,.9-.37,1.29-.8.44-.49.8-1.08,1.04-1.4,1.72-2.32,3.76-4.39,5.73-6.49.98-1.05,1.93-2.12,2.94-3.13.54-.54,1.07-1.15,1.7-1.59.16-.11.28-.16.36-.16.12,0,.17.09.17.23,0,.15-.06.35-.15.53-.26.5-.79,1.18-.79,1.78,0,.31.23.54.23.85,0,.32-.14.66-.3.88-.35.47-.75.47-.75.99,0,.26.11.56.11.7,0,.31-.25.57-.38.57-.18,0-.13-.43-.35-.43-.05,0-.17.05-.27.19-.14.19-.28.88-.28,1.31,0,.47.09.94.28,1.36.29.65.64,1.16.81,1.86.15.6.61,1.05,1.09,1.42.66.5,1.38.7,2.12.7,1.77,0,3.62-1.15,5.01-2.11,1-.7,1.89-1.51,2.74-2.37.08.92.31,1.94.76,2.8.58,1.1,1.54,1.94,3.06,1.94.64,0,1.28-.15,1.9-.4.46-.18,1.04-.36,1.38-.73.28-.31.44-.74.72-1.07.75-.86,1.44-1.72,2.28-2.52.34-.32,1.02-1.61,1.65-1.63.62-.02.56,1.13.62,1.64.05.48.14.87.33,1.32.38.91.71,1.76,1.67,2.18.42.19.85.27,1.28.27,1.48,0,2.97-.95,4.08-1.82,1.61-1.25,3.03-2.77,4.4-4.27,1.36-1.5,3.03-3.11,3.92-4.94.49-1,.32-1.86.41-2.93.02-.19.31-1.09.31-1.65,0-.26-.06-.44-.24-.44Zm-60.51,3.05c.36-.67.78-1.21,1.4-1.66.69-.51,1.12-1.18,1.71-1.79.44-.45,1.33-1.25,1.96-1.25.26,0,.35.14.35.35,0,.43-.4,1.13-.52,1.38-.37.76-.79,1.5-1.25,2.2-.41.63-.97,1.16-1.68,1.63-.82.53-1.79.94-2.28.94-.24,0-.32-.14-.32-.33,0-.44.52-1.24.64-1.46Zm-72.81,0c.36-.67.79-1.21,1.4-1.66.69-.51,1.12-1.18,1.71-1.79.43-.45,1.33-1.25,1.96-1.25.26,0,.35.14.35.35,0,.43-.4,1.13-.52,1.38-.37.76-.79,1.5-1.25,2.2-.41.63-.97,1.16-1.68,1.63-.82.53-1.79.94-2.28.94-.24,0-.32-.14-.32-.33,0-.44.52-1.24.64-1.46Zm120.22-1.74c-.26.66-.61.82-1.1,1.35-.96,1.04-1.63,2.34-2.6,3.37-.42.45-.98.68-1.39,1.11-.39.41-.68.92-1.06,1.33-.88.96-1.99,1.97-3.09,2.67-.26.17-.63.34-.87.34-.15,0-.25-.06-.25-.24,0-.09.02-.23.1-.39.22-.46.4-.93.53-1.5.14-.59.39-1.14.7-1.67.42-.71.93-1.37,1.4-2,.82-1.12,1.72-2.23,2.62-3.29.86-1,1.98-1.77,3.02-2.56.74-.57,2-1.41,2.97-1.41.73,0,1.18.62,1.18,1.03,0,.38-.72.63-1.13.72-.56.13-.85.72-1.01,1.13Z"/>
      <path class="cls-1" d="m289.14,17.1c.45.3.63.52,1.17.5.47-.01.83-.2,1.41-.47.41-.19,1.18-.42,1.65-.69.42-.25.8-.59,1.23-.87.43-.28.96-.34,1.35-.63.44-.32.71-.8,1.06-1.08.56-.45,1.22-1.28,1.22-1.74,0-.36-.12-.62-.4-.99-.28-.36-.36-.56-.76-.88-.41-.32-.63-.68-1-.89-.21-.11-.42-.17-.61-.16-.25,0-.36.09-.58.26-.32.24-.69.8-1.47,1.41-.39.3-1.33.82-1.73,1.19-.38.36-.67.76-1.06,1.1-.42.38-.9.66-1.27.95-.58.46-.78.72-1.13.85-.21.08-.32.24-.31.47,0,.23.12.51.34.81.27.38.47.58.91.87Z"/>
      <path class="cls-1" d="m114.09,61.11c0,.19.13.32.23.54.03.06.18.36.22.5.12.4.35.98.61,1.34.25.35.56.51.84.74.32.27.55.51.86.78.49.42,1.59.58,2.13.58,1.29,0,2.46-.67,3.47-1.33.81-.54,1.47-1.05,2.15-1.76.76-.78,1.28-.9,1.98-1.74,1-1.2,1.44-1.71,2.67-3.73.59-.97,1.24-1.91,1.78-2.9.49-.91.93-1.88,1.49-2.76.56-.89,1.35-1.55,1.73-2.54.31-.81.64-1.41,1.34-1.95,1.49-1.18,2.91-2.33,4.49-3.42,2.12-1.47,3.86-3.1,5.73-4.88,1.54-1.47,2.97-3.06,4.32-4.71.72-.88,1.38-1.82,1.88-2.85.23-.47.44-.96.55-1.47.04-.18.06-.36.06-.53,0-.32-.02-.62.01-.95.04-.38.36-.7.36-1.05,0-.27-.13-.46-.3-.46-.13,0-.28.12-.43.29-.68.77-1.13,1.54-1.93,2.21-.83.69-1.29,1.55-2.03,2.3-.76.76-1.48,1.54-2.21,2.33-1.47,1.61-2.7,2.94-4.41,4.29-.79.64-2.01,2.01-2.8,2.01-.1,0-.16-.05-.16-.15,0-.11.07-.26.17-.45.25-.48.51-.96.77-1.44.48-.89.9-1.89,1.59-2.63.3-.31.52-.5.65-.92.15-.48.24-.88.47-1.35.44-.88.91-1.73,1.38-2.6.43-.81.63-1.7,1.08-2.48.82-1.4,2.3-3.16,2.3-4.94,0-.93-.24-1.31-.59-1.5-.41-.22-.96-.19-1.44-.48-.33-.2-.5-.31-.75-.31-.48,0-.89.27-1.23.62-.62.64-1.21,1.31-1.72,2.05-.69,1-1.46,2.03-2.22,3.01-.66.85-1.3,1.71-2.04,2.49-.65.67-1.34,1.31-1.9,2.06-.69.92-1.27,1.86-2.05,2.71-.74.8-1.48,1.6-2.25,2.36-.73.73-1.53,1.42-2.36,2.04-.26.2-.49.29-.66.29-.26,0-.4-.2-.4-.52,0-.17.04-.37.13-.6.39-1.04,1.15-1.98,1.75-2.9.55-.84.97-1.72,1.48-2.58.26-.45.67-.71.99-1.11.3-.37.48-.84.73-1.25.49-.81,1.06-1.58,1.59-2.36.63-.94,1.34-2,1.34-3,0-.61-.26-1.19-.96-1.72-.51-.39-1.23-.86-1.9-.86-.25,0-.5.07-.72.23-.75.54-1.29,1.45-1.84,2.19-.36.49-.72.97-1.08,1.46-.23.32-.63.7-.77,1.08-.18.49.06.7-.35,1.04-.14.11-.34.06-.51.21-.08.08-.18.29-.24.36-.54.74-1.62,1.38-1.62,2.18,0,.17.1.22.16.22.29,0,.57-.81.81-.81.04,0,.06.02.06.14s-.09.33-.16.44c-.24.38-.57.71-.82,1.08-.27.4-.42.85-.7,1.24-.27.37-.63.65-.86,1.05-.27.47-.42.94-.73,1.38-.27.37-.57.73-.74,1.17-.23.59-.38,1.91-.38,2.79,0,1.01.31,1.99.67,2.85.53,1.26,1.55,1.94,2.78,1.94,1.61,0,3.25-1.2,4.37-2.16,1.64-1.41,2.94-3.12,4.36-4.74.08-.1.55-.71.75-.71.07,0,.11.04.11.15,0,.25-.29.82-.36.96-.22.41-.59.7-.87,1.06-.31.39-.37.76-.52,1.23-.28.95-.95,1.87-1.46,2.71-.46.74-.95,1.49-1.66,2.01-.85.64-2,.98-2.97,1.42-.89.41-1.62,1.03-2.51,1.45-.91.43-1.57.98-2.47,1.4-.73.34-1.15.84-1.79,1.34-.1.08-.68.57-1.02.86-.17.14-.59.36-.75.51-.28.25-.52.48-.82.7-.6.45-1.33,1.41-1.9,2.19-.58.8-.76,1.13-1.23,1.93-.42.72-.43,1.2-.51,1.91-.08.72-.32,1.17-.33,1.72,0,.43.37.68.36.86-.02.35-.32.31-.32.62Zm5.37-3.94c.42-.54.74-1.06,1.08-1.65.31-.54.81-.83,1.29-1.21.16-.13.65-.55,1.14-.99.53-.48,1.01-1.1,1.28-1.33.38-.32,1.52-.87,1.86-1.11.5-.35.85-.7,1.4-.99.19-.1.36-.16.47-.16.09,0,.15.05.15.15,0,.08-.04.2-.11.35-.58,1.17-1.77,2.35-2.36,3.54-.29.59-.67,1.22-1.16,1.68-.37.34-.52.6-1.29,1.55-.86,1.04-2.05,1.86-3.06,2.76-.44.39-1.02.98-1.6.98h0c-.27,0-.41-.15-.4-.44.01-.75.41-1.95,1.32-3.12Z"/>
      <path class="cls-1" d="m75.59,39.38c.2-.21.42-.41.63-.6,0,.07-.02.15-.02.22,0,.48.07.87.11,1.37.06.76.36,1.1.82,1.71.86,1.14,2.15,1.66,3.17,1.66h0c1.47,0,2.71-.51,3.89-1.26,2.01-1.28,3.82-2.94,5.5-4.66-.03.26-.1.51-.1.77,0,.34.16.45.38.72.16.2.16.38.2.63.06.36.03.82.23,1.14.22.35.65.31.85.66.19.33.17.66.45.98.55.64,1.33.98,2.13,1.19.72.19,1.44.28,2.17.28,1.23,0,2.45-.26,3.59-.75,1.82-.78,3.56-1.79,5.1-3.04,1.54-1.26,3.11-2.62,4.53-4.02,1.33-1.31,2.56-2.87,3.66-4.38.57-.77.66-1.64.74-2.59.02-.19.22-.83.22-1.3,0-.5-.09-.84-.44-.84-.49,0-.83.68-1.18,1.07-.3.33-.72.78-1.03,1.1-.67.7-1.38,1.37-2.08,2.04-.71.68-1.36,1.43-2.08,2.1-.78.72-1.65,1.37-2.49,2.02-1.49,1.16-3.16,2.17-4.93,2.98-.86.4-1.79,1.1-3.35,1.1-.74,0-1.19-.15-1.53-.77-.14-.25-.34-.88-.34-1.2,0-.68.2-1.43.39-1.97.23-.64.87-1.89,1.51-1.89.38,0,.82.44,1.2.62.4.19.85.35,1.29.35.96,0,1.87-.46,2.72-.87,1.76-.84,3.6-1.72,4.8-3.31,1.11-1.47,2.21-3.6,2.21-5.45,0-.96-.72-2.67-.85-2.86-.62-.91-1.48-1.45-2.56-1.67-.41-.08-.84-.2-1.26-.2-.67,0-1.34.2-1.93.57-.37.23-.75.46-1.19.54-.43.08-.9.02-1.31.24-.34.18-.63.57-.95.8-.38.28-.48.63-.79.98-.35.4-.87.64-1.22.96-.39.36-.74.72-1.06,1.14-.67.86-1.47,1.63-2.05,2.56-.29.46-.57.94-.86,1.4-.04.04-.07.08-.11.12-1,1.1-1.84,2.36-2.92,3.39-.99.95-2.08,1.79-3.07,2.75-1.04,1-2.17,1.91-3.47,2.54-.26.13-.65.31-1,.31-.4,0-.64-.28-.63-.65,0-.42.29-.93.44-1.23.35-.71.78-1.37,1.2-2.04.4-.64.5-1.31.85-1.97.59-1.14,1.42-2.07,2.16-3.1.9-1.25,1.5-2.64,2.33-3.93.77-1.2,1.69-2.3,2.41-3.53.61-1.05,1.1-2.64,2.32-3.07.33-.12.5-.2.5-.31,0-.12-.14-.16-.14-.28,0-.1.19-.14.32-.14.34,0,.42.12.72.12s.57-.1.84-.18c.15-.04.42-.12.75-.12.39,0,.92-.1,1.24-.1.34,0,.6.08.91.08s.64-.05.98-.09c.77-.09,1.49-.15,2.23-.42.59-.21,1.22-.27,1.8-.5.37-.15.5-.48.5-.77,0-.25-.11-.45-.25-.73-.23-.43-.29-1.09-.65-1.42-.52-.47-1.82-.57-2.34-.57s-1.08,0-1.44.06c-.5.09-.93.18-1.43.18-.36,0-.84-.13-.84-.4,0-.23.28-.52.45-.78.4-.61.78-1.24,1.23-1.81.52-.66,1.03-1.25,1.03-2.24,0-1.08-.74-1.9-1.71-2.42-.39-.21-.94-.56-1.43-.56-.67,0-.81.74-1.16,1.22-.22.31-.45.54-.58.91-.09.24-.14.49-.28.72-.3.51-.75,1.01-1.11,1.49-.76,1.03-1.66,1.92-2.4,2.97-.34.49-.6,1.01-1.22,1.18-.57.17-1.86.11-2.45.19-1.46.18-2.29.38-3.75.6-.79.12-1.61.19-2.39.35-.29.06-.38.19-.38.37,0,.22.15.5.25.78.2.56.35,1.32.9,1.65.56.33,1.33.2,1.87.56.33.22.48.31.9.37.22.03.32.08.56.08.33,0,.49-.09.72-.09.2,0,.43.03.43.4,0,.58-.7,1.35-1.03,1.84-.37.54-.72,1.08-1.11,1.6-.32.43-.44.93-.75,1.35-.14.19-.35.3-.49.49-.12.18-.15.41-.26.6-.19.34-2.12,2.32-2.12,2.84,0,.04.01.07.03.09-.04.05-.08.1-.12.15-.54.68-1.09,1.34-1.63,2.02-1.07,1.35-2.15,2.69-3.3,3.97-1.1,1.23-2.14,2.57-3.43,3.61-.42.34-1.84,1.42-2.56,1.42-.26,0-.43-.14-.42-.52,0-.44.5-2.21.89-2.86.39-.66.83-1.29,1.22-1.95.37-.61.92-1.08,1.28-1.69.19-.32.26-.68.44-1,.18-.31.44-.53.66-.8.51-.64.78-1.35,1.14-2.07.36-.71.86-1.34,1.27-2.02.51-.84,1.14-1.97,1.14-3.02,0-.52-.16-1.02-.56-1.45-.28-.3-.63-.51-.92-.81-.22-.23-.49-.53-.88-.53-.65,0-1.12.81-1.52,1.19-.27.26-.54.46-.69.82-.07.18-.08.37-.19.53-.38.54-1.07.9-1.5,1.43-.45.56-.83,1.3-1.22,1.9-.21.31-.39.64-.58.96-.77,1.02-1.54,1.97-2.47,2.92-1,1.03-2.48,2.65-3.97,2.65-.43,0-.61-.17-.61-.47,0-.17.06-.39.18-.64.34-.74.76-1.45,1.12-2.19.7-1.44,1.06-3.31,1.06-4.81,0-.47-.05-.93-.17-1.42-.15-.62-.13-1.28-.3-1.88-.3-1.05-1.35-1.7-2.39-1.7-1.58,0-2.92.77-4.17,1.63-.29.2-2.4,1.98-2.81,1.98-.12,0-.15-.07-.15-.2,0-.53,1.86-2.74,2.09-3.07.82-1.14,1.37-2.04,2.49-2.91,2.04-1.6,4.11-3.46,5.68-5.53.54-.71,1.06-1.46,1.54-2.21.26-.42.38-.93.67-1.34.34-.48.91-.7,1.24-1.19.33-.49.59-1.07.84-1.6.42-.89.9-1.9.9-2.91,0-.31-.05-.62-.15-.93-.33-.94-1.03-1.87-1.95-1.87-.24,0-.5.06-.78.21-.6.32-1.06.84-1.67,1.17-.53.29-.95.53-1.35,1-.38.43-.6,1.02-.98,1.43-.14.15-.37.18-.5.35-.14.19-.15.51-.3.7-.46.59-.98.79-1.15,1.08-.15.25-.07.43-.15.66-.06.18-.16.33-.39.62-.78.95-1.68,1.79-2.46,2.74-.81.99-1.44,2.02-2.16,3.04-.67.94-1.3,1.8-1.87,2.79-.34.59-.76,1.12-1.11,1.69-.24.4-.3.86-.54,1.26-.29.48-.65,1.1-1.01,1.53-.28.33-.66.53-.96.85-.44.46-.34.9-.63,1.41-.29.53-.66.99-.92,1.55-.34.74-.7,1.5-1.06,2.21-.46.92-1.15,1.82-1.54,2.69-.06.13-.28.65-.28.8,0,.14.06.17.1.27-1.3,1.52-2.61,2.95-3.97,4.37-1,1.04-2.09,2.05-3.23,2.93-.42.32-1.16.83-1.65.83-.29,0-.49-.29-.49-.66,0-1.33.76-2.45,1.31-3.61.58-1.22,1.69-2.15,2.35-3.33.33-.59.57-1.21.96-1.76.36-.52.76-1.01,1.14-1.51.82-1.1,1.62-2.45,1.62-3.87,0-.53-.15-1.02-.52-1.41-.24-.26-.57-.52-.93-.52-.45,0-.71.19-.95.19-.31,0-.64-.57-1.01-.57-.47,0-.91.58-1.15.9-.17.23-.39.51-.52.77-.12.23-.11.43-.17.66-.13.46-.76.82-1.06,1.2-.88,1.12-1.69,2.27-2.65,3.33-.38.42-.56.89-.85,1.36-.27.44-.63.84-.96,1.23-.39.46-.92.86-1.24,1.38-.14.23-.03.35-.13.54-.09.18-.41.15-.51.3-.13.2-.06.34-.24.6-.06.09-.13.13-.18.13-.14,0-.13-.09-.33-.09-.27,0-.79.77-.99,1.01-.19.22-.44.35-.62.55-.16.18-.12.39-.26.57-.16.21-.44.12-.64.24-.22.12-.34.37-.51.55-.51.52-1.16.89-1.71,1.36-.24.21-.76.72-1.18.72-.26,0-.39-.15-.38-.47.04-.86,1.19-2.62,1.39-2.98.7-1.27,1.58-2.42,2.43-3.59.85-1.17,1.87-2.44,2.61-3.68.36-.6.66-1.05.95-1.68.24-.53.63-1.14.63-1.74,0-.67-.51-1.16-.98-1.58-.3-.26-.75-.97-1.18-.97-.46,0-.46.51-.88.51-.1,0-.15-.02-.27-.02-.27,0-.47.21-.86.4-.24.11-.47.18-.67.35-.47.38-.62.92-.88,1.43-.24.48-.74.8-1.05,1.25-.73,1.06-1.24,2.19-1.99,3.23-.06.08-.12.14-.17.22-.62.57-1.05,1.16-1.67,1.76-.69.67-1.26,1.52-1.94,2.2-1.35,1.34-2.42,2.53-3.96,3.53-.12.08-.44.28-.62.28-.1,0-.19-.13-.19-.29,0-.46.19-.78.24-.9.36-.9.61-1.54.92-2.45.54-1.61,1.21-3.23,1.54-4.91.31-1.58.55-3.16.77-4.73.03-.22.05-.46.05-.69,0-1.07-.37-2.16-1.41-2.47-.33-.1-.69-.06-.99-.25-.27-.17-.59-.47-.99-.47-.59,0-1.1.59-1.54.95-.37.3-.97.62-1.31.96-.89.91-1.81,1.92-2.64,2.86-1.13,1.28-2.22,2.59-3.25,3.95-1.05,1.39-2.09,2.85-3.27,4.15-.57.63-1.18,1.23-1.79,1.82-.53.51-1.25,1.18-1.25,1.85,0,.52.66.82,1.05,1.15.21.18.27.45.3.74.04.42,0,.9.12,1.32.41,1.34.83,2.15,1.75,3.19.5.57,1.33,1.41,2.14,1.64.53.15,1.03.18,1.59.18h0c.81,0,1.76-.16,2.85-.55.82-.29,1.8-.77,2.43-1.1,1.24-.67,2.46-1.19,3.63-2.02,1.03-.73,2.02-1.61,2.96-2.5-.08.42-.14.83-.14,1.23,0,.75.48,2.59,1.25,3.45.72.8,1.57,1.11,2.45,1.11,1.57,0,3.1-1,4.26-2.06,1.02-.92,1.97-1.96,2.8-3.06.47-.63.81-1.31,1.24-1.31s.38.71.42,1.38c.06,1.2.45,2.6,1.59,3.18.56.28,1.08.72,1.65.95.27.11.57.16.87.16s.62-.05.91-.1c1.22-.24,2.27-.84,3.22-1.59,1.18-.92,2.21-2.08,3.23-3.11.35-.35.7-.71,1.05-1.08,0,1.2.3,2.56.68,3.6.4,1.09,1.37,2.18,2.47,2.6.68.26,1.36.37,2.04.37,2.06,0,4.07-1.05,5.73-2.26,1.16-.84,2.18-1.83,3.14-2.89.32-.36.7-.99,1.12-1.24.18-.12.37-.15.55-.15.33,0,.98.14,1.35.14,1.23,0,2.44-.35,3.56-.91-.1.64-.32,1.54-.32,2.38,0,.9.25,1.92.76,2.88.37.71.67,1.36,1.42,1.72.65.31,1.33.45,2.02.45,1.09,0,2.19-.35,3.13-.92,1.67-1,2.97-2.48,4.31-3.87Zm23.27-9.76c.36-.67.79-1.21,1.4-1.66.69-.51,1.12-1.18,1.71-1.79.44-.45,1.33-1.25,1.96-1.25.26,0,.35.14.35.35,0,.43-.4,1.13-.52,1.38-.37.76-.79,1.5-1.25,2.2-.41.63-.97,1.16-1.68,1.63-.82.53-1.79.94-2.28.94-.24,0-.32-.14-.32-.33,0-.44.52-1.24.64-1.46Zm-86.98-1.25c-.33.47-.29.77-.44,1.29-.14.48-.19.86-.36,1.35-.19.57-.42.96-.42,1.33,0,.32.26.35.26.61,0,.22-.14.33-.14.54,0,.23.23.3.23.43,0,.42-.83.7-.83,1.12,0,.17.08.32.06.49-.03.25-.31.5-.53.55-.27.06-.4.18-.47.33-.21.42-.59,1.14-.95,1.61-.38.49-.89,1.02-1.35,1.35-.2.14-.44.21-.68.21-.39,0-1.05-.33-1.24-.64-.24-.42-.65-1.86-.65-2.8,0-1.12,1.49-2.13,2.27-3.04.88-1.02,1.62-2.16,2.52-3.17.39-.44.63-.86,1.06-1.25.56-.51,1.19-1.09,1.67-1.09.16,0,.2.12.18.28-.02.15-.1.33-.2.48Zm46.15-.91c-.39.83-.8,1.64-1.06,2.52-.24.82-.27,1.61-.78,2.31-.45.63-1.12.93-1.54,1.64-.41.69-.71,1.36-1.25,1.97-.48.53-.98,1.16-1.5,1.64-.21.2-.4.24-.64.36-.32.16-.61.43-.9.62-.31.21-1.18.45-1.9.45-.37,0-.74-.21-.74-.58,0-1.01.48-1.62.85-2.46.39-.86.76-1.7,1.28-2.5,1.1-1.69,2.44-3.19,3.83-4.65,1.22-1.29,2.81-2.36,3.98-3.68.32-.36.61-.64.84-.64.15,0,.31.14.31.67,0,.78-.46,1.64-.79,2.34Z"/>
      <path class="cls-1" d="m80.96,14.94c.63,0,1.29-.35,1.76-.73.77-.63,1.45-1.54,2.02-2.36.64-.92.99-2,.99-2.86,0-1.12-.76-2.67-1.71-2.67-.76,0-1.9.39-2.58.82-1.43.9-2.76,2.74-2.76,4.52,0,1.09.87,3.28,2.29,3.28Z"/>
    </g>
  </g>
</svg>